<svg width="683" height="383" viewBox="0 0 683 383" fill="none" xmlns="http://www.w3.org/2000/svg">
<g clip-path="url(#clip0_182:854)">
<path d="M554.8 322.887L682.086 251.221L643.34 237.192L673.996 163.831L604.408 169.185L605.107 131.201L541.859 177.139L575.594 56.6046L527.636 69.8286L506.052 1.66064L466.146 60.9999L423.853 34.828L422.279 159.98L374.528 98.1099L364.496 134.76L299.23 110.053L307.988 189.075L266.861 191.637L368.825 296.194L341.669 337.799L455.722 319.627L444.04 372.032L452.652 373.267L461.272 374.502L464.81 320.931L569.138 370.437L554.8 322.887Z" stroke="#F8EFE2" stroke-miterlimit="10"/>
<path d="M549.712 320.486L667.618 253.653L631.627 240.743L659.873 172.598L595.328 177.753L595.873 142.507L537.323 185.301L568.294 73.3798L523.837 85.7754L503.627 22.5933L466.76 77.752L427.453 53.5822L426.324 169.699L381.859 112.423L372.648 146.457L312.033 123.706L320.369 196.998L282.221 199.483L377.1 296.224L352.024 334.883L457.787 317.725L447.087 366.379L455.085 367.499L463.076 368.626L466.223 318.913L563.144 364.561L549.712 320.486Z" stroke="#F0DECF" stroke-miterlimit="10"/>
<path d="M544.63 318.077L653.142 256.084L619.922 244.295L645.758 181.366L586.248 186.321L586.64 153.813L532.779 193.454L560.987 90.1554L520.03 101.723L501.201 43.5186L467.374 94.4969L431.045 72.3367L430.378 179.417L389.19 126.744L380.808 158.147L324.829 137.36L332.75 204.922L297.58 207.33L385.375 296.247L362.371 331.984L459.852 315.822L450.127 360.718L457.511 361.73L464.888 362.743L467.628 316.889L557.157 358.685L544.63 318.077Z" stroke="#E9CDBD" stroke-miterlimit="10"/>
<path d="M539.542 315.677L638.673 258.516L608.208 247.846L631.635 190.133L577.168 194.881L577.406 165.12L528.235 201.616L553.688 106.923L516.23 117.67L498.768 64.4438L467.989 111.249L434.645 91.0913L434.423 189.136L396.52 141.057L388.96 169.845L337.632 151.013L345.131 212.846L312.932 215.185L393.649 296.27L372.718 329.077L461.909 313.928L453.175 355.065L459.937 355.97L466.699 356.867L469.04 314.871L551.163 352.817L539.542 315.677Z" stroke="#E2BCAA" stroke-miterlimit="10"/>
<path d="M534.461 313.276L624.205 260.955L596.503 251.398L617.512 198.893L568.088 203.449L568.172 176.426L523.692 209.778L546.389 123.699L512.424 133.617L496.343 85.377L468.603 128.002L438.246 109.846L438.476 198.855L403.851 155.371L397.111 181.542L350.435 164.675L357.512 220.769L328.291 223.032L401.924 296.293L383.065 326.17L463.975 312.026L456.222 349.412L462.363 350.202L468.503 350.992L470.445 312.854L545.168 346.942L534.461 313.276Z" stroke="#DBAB99" stroke-miterlimit="10"/>
<path d="M529.37 310.875L609.735 263.387L584.789 254.941L603.395 207.66L559.006 212.017L558.937 187.732L519.154 217.939L539.08 140.474L508.623 149.564L493.916 106.302L469.215 144.754L441.844 128.6L442.519 208.573L411.179 169.683L405.261 193.24L363.237 178.328L369.892 228.693L343.648 230.886L410.197 296.324L393.41 323.263L466.03 310.123L459.268 343.758L464.787 344.433L470.313 345.108L471.856 310.836L539.172 341.066L529.37 310.875Z" stroke="#D49A88" stroke-miterlimit="10"/>
<path d="M524.289 308.474L595.258 265.818L573.083 258.493L589.271 216.428L549.926 220.585L549.703 199.046L514.61 226.093L531.78 157.25L504.816 165.511L491.491 127.235L469.83 161.499L445.444 147.347L446.565 218.292L418.51 184.004L413.421 204.93L376.033 191.982L382.273 236.617L359.008 238.734L418.472 296.347L403.757 320.356L468.095 308.221L462.315 338.105L467.22 338.673L472.117 339.233L473.261 308.819L533.177 335.191L524.289 308.474Z" stroke="#CD8977" stroke-miterlimit="10"/>
<path d="M519.2 306.073L580.79 268.25L561.37 262.044L575.148 225.195L540.846 229.146L540.477 210.353L510.066 234.254L524.481 174.025L501.016 181.458L489.065 148.16L470.444 178.252L449.044 166.102L450.618 228.018L425.84 198.318L421.573 216.627L388.836 205.635L394.654 244.548L374.367 246.581L426.746 296.37L414.104 317.449L470.152 306.326L465.363 332.452L469.646 332.905L473.929 333.35L474.673 306.794L527.191 329.315L519.2 306.073Z" stroke="#C67868" stroke-miterlimit="10"/>
<path d="M514.119 303.672L566.322 270.681L549.665 265.596L561.033 233.962L531.766 237.713L531.244 221.659L505.522 242.415L517.174 190.8L497.21 197.405L486.632 169.093L471.058 195.004L452.644 184.856L454.663 237.736L433.171 212.638L429.725 228.325L401.639 219.296L407.035 252.471L389.727 254.435L435.021 296.393L424.451 314.541L472.217 304.424L468.41 326.799L472.072 327.136L475.733 327.474L476.078 304.777L521.196 323.447L514.119 303.672Z" stroke="#C06859" stroke-miterlimit="10"/>
<path d="M509.03 301.271L551.853 273.121L537.952 269.147L546.91 242.73L522.686 246.281L522.01 232.965L500.979 250.569L509.875 207.568L493.41 213.359L484.207 190.018L471.673 211.749L456.237 203.61L458.716 247.455L440.502 226.952L437.877 240.022L414.443 232.95L419.416 260.395L405.086 262.282L443.296 296.424L434.799 311.634L474.275 302.522L471.458 321.146L474.497 321.368L477.545 321.598L477.491 302.759L515.202 317.571L509.03 301.271Z" stroke="#B9574C" stroke-miterlimit="10"/>
<path d="M503.949 298.87L537.385 275.552L526.239 272.691L532.787 251.489L513.605 254.849L512.776 244.271L496.442 258.73L502.575 224.343L489.611 229.306L481.782 210.951L472.287 228.501L459.837 222.364L462.761 257.173L447.84 241.265L446.036 251.712L427.238 246.603L431.798 268.319L420.438 270.129L451.57 296.446L445.146 308.727L476.34 300.619L474.498 315.492L476.931 315.607L479.356 315.715L478.896 300.742L509.207 311.695L503.949 298.87Z" stroke="#B3473F" stroke-miterlimit="10"/>
<path d="M498.86 296.469L522.909 277.984L514.534 276.242L518.672 260.257L504.517 263.41L503.543 255.586L491.899 266.892L495.276 241.119L485.804 245.253L479.357 231.876L472.901 245.253L463.437 241.119L466.807 266.892L455.17 255.586L454.188 263.41L440.042 260.257L444.179 276.242L435.797 277.984L459.845 296.469L455.493 305.82L478.405 298.725L477.545 309.839H479.357H481.16L480.308 298.725L503.213 305.82L498.86 296.469Z" stroke="#AD3734" stroke-miterlimit="10"/>
<path d="M353.757 136.063C307.557 45.996 235.175 31.1382 235.175 31.1382C235.175 31.1382 246.497 43.7101 251.501 49.8158C254.572 53.5667 257.749 57.448 260.712 61.3216C286.579 94.6501 302.867 124.918 311.948 156.597C320.391 186.044 320.943 212.523 313.636 237.552C310.595 248.33 305.901 258.571 299.72 267.912L201.594 146.718L257.074 100.326L226.594 97.6263C210.421 96.2072 193.696 94.7422 177.247 93.4843C172.887 93.1468 169.11 95.5475 166.654 97.3731C149.614 110.045 133.15 122.463 119.287 132.934C111.765 138.618 104.266 144.34 96.9893 149.901L81.4306 161.767L123.946 213.306L130.939 207.783C132.144 206.847 133.38 205.88 134.593 204.868L142.66 198.126C150.335 191.721 158.264 185.086 165.994 178.435C185.536 205.19 205.132 231.904 224.782 258.577L248.83 291.307C252.254 295.963 255.631 300.642 259.077 305.429L259.269 305.697L258.847 305.927C240.686 315.623 222.978 319.964 204.71 319.22C183.295 318.346 166.654 311.703 153.805 298.924C147.595 292.787 141.693 285.884 135.974 279.211C133.057 275.813 130.148 272.422 127.178 269.078C125.812 267.544 124.768 266.286 123.923 265.243C117.706 257.726 114.145 257.657 105.901 261.292C104.711 261.822 103.268 262.458 101.495 263.187C96.7974 265.105 92.8674 266.186 89.0142 265.22C83.173 263.747 79.3812 265.434 77.2397 267.114C75.0982 268.794 72.4961 272.123 72.5114 278.283C72.5114 279.564 72.3656 280.354 69.0651 282.946C60.5757 289.627 52.0173 294.145 42.8986 296.753C28.9671 300.773 16.9777 308.735 7.25257 320.417C-0.292655 329.476 -1.68196 340.023 3.52217 348.621C9.12544 357.826 21.1149 362.037 32.0298 358.524C43.6892 354.773 58.4495 348.552 69.2339 333.848C75.2133 325.679 82.4131 318.162 90.5187 309.885C91.0702 309.347 91.7296 308.933 92.4533 308.668C93.177 308.404 93.9487 308.296 94.7173 308.351C96.0556 308.409 97.3685 308.736 98.5778 309.312C99.787 309.887 100.868 310.701 101.756 311.703C103.967 314.181 106.154 316.712 108.349 319.235C116.793 328.962 125.512 339.025 135.821 347.287C159.562 366.31 184.784 376.995 211.273 379.288C233.118 381.19 255.782 377.386 279.264 367.874C285.098 365.504 290.686 362.597 296.089 359.782L298.269 358.654L315.747 382.226L362.807 346.059L358.316 340.399C356.566 338.189 354.87 336.026 353.197 333.902C349.359 329.023 345.721 324.39 341.929 319.811C356.513 301.133 366.422 280.599 371.427 258.769C380.699 218.192 374.719 176.924 353.757 136.063Z" stroke="#F8EFE2" stroke-miterlimit="10"/>
<path d="M349.936 147.071C306.821 63.4619 239.521 49.7471 239.521 49.7471C239.521 49.7471 250.06 61.4138 254.726 67.0824C257.589 70.5648 260.545 74.1624 263.331 77.7368C287.448 108.672 302.631 136.8 311.135 166.216C319.034 193.569 319.579 218.184 312.847 241.464C310.04 251.482 305.695 261.005 299.967 269.692L208.534 157.188L260.03 113.965L231.63 111.548C216.594 110.252 201.043 108.925 185.745 107.782C181.692 107.483 178.184 109.715 175.905 111.418C160.093 123.231 144.803 134.798 131.938 144.555C124.953 149.855 117.999 155.186 111.214 160.371L96.768 171.425L136.352 219.281L142.845 214.134C143.966 213.26 145.148 212.362 146.238 211.419L153.729 205.137C160.852 199.169 168.206 193.009 175.383 186.789C193.6 211.626 211.863 236.427 230.172 261.193L252.585 291.576C255.77 295.894 258.925 300.243 262.133 304.685L262.318 304.93L261.926 305.145C245.04 314.112 228.606 318.262 211.62 317.602C191.709 316.835 176.227 310.698 164.26 298.824C158.481 293.095 152.977 286.705 147.658 280.53C144.941 277.378 142.224 274.233 139.453 271.134C138.186 269.715 137.211 268.541 136.428 267.59C130.633 260.61 127.325 260.556 119.665 263.954C118.559 264.445 117.224 265.036 115.573 265.718C111.206 267.513 107.56 268.526 103.975 267.628C98.5411 266.271 95.0256 267.851 93.0376 269.408C91.0496 270.965 88.6317 274.072 88.6548 279.809C88.6548 280.998 88.5243 281.734 85.4693 284.143C77.5864 290.364 69.6343 294.59 61.168 297.045C48.2268 300.811 37.0893 308.228 28.0704 319.105C21.0778 327.543 19.796 337.346 24.6547 345.331C29.8818 353.914 41.027 357.772 51.1743 354.482C62.0047 350.984 75.7365 345.201 85.715 331.47C91.2645 323.861 97.9424 316.896 105.465 309.149C105.975 308.646 106.587 308.257 107.259 308.007C107.931 307.757 108.648 307.652 109.364 307.699C110.605 307.75 111.823 308.047 112.947 308.574C114.071 309.101 115.079 309.847 115.911 310.768C117.968 313.069 120.01 315.416 122.052 317.763C129.912 326.791 138.048 336.126 147.643 343.789C169.741 361.431 193.206 371.319 217.837 373.405C238.147 375.133 259.206 371.554 281.016 362.666C286.442 360.457 291.624 357.742 296.643 355.118L298.67 354.068L314.958 375.944L358.694 342.316L354.511 337.062C352.876 335.014 351.295 333.012 349.736 331.041C346.159 326.507 342.767 322.204 339.236 317.962C352.745 300.566 361.933 281.466 366.546 261.2C375.128 223.369 369.494 185.017 349.936 147.071Z" stroke="#F0DECF" stroke-miterlimit="10"/>
<path d="M346.105 158.086C306.092 80.8663 243.857 68.3403 243.857 68.3403C243.857 68.3403 253.628 79.079 257.95 84.3256C260.598 87.5395 263.323 90.8686 265.925 94.1669C288.276 122.701 302.369 148.628 310.29 175.835C317.644 201.102 318.219 223.853 312.033 245.376C309.453 254.643 305.455 263.455 300.181 271.502L215.442 167.72L262.947 127.664L236.719 125.493C222.818 124.328 208.449 123.131 194.31 122.103C190.565 121.834 187.325 123.906 185.222 125.486C170.638 136.432 156.523 147.163 144.656 156.168C138.209 161.077 131.792 166.017 125.559 170.826L112.234 181.074L148.916 225.218L154.903 220.447C155.939 219.642 156.999 218.805 158.035 217.931L164.943 212.109C171.513 206.579 178.306 200.872 184.9 195.111C201.786 218.031 218.717 240.912 235.69 263.755L256.468 291.79C259.423 295.771 262.34 299.791 265.318 303.887L265.487 304.109L265.126 304.316C249.514 312.631 234.355 316.505 218.658 315.93C200.236 315.247 185.936 309.609 174.852 298.671C169.479 293.394 164.398 287.495 159.463 281.796C156.945 278.889 154.435 275.982 151.864 273.128C150.689 271.816 149.784 270.735 149.062 269.86C143.689 263.425 140.619 263.379 133.565 266.531C132.544 266.992 131.308 267.544 129.781 268.173C125.751 269.845 122.381 270.781 119.035 269.968C114.007 268.725 110.768 270.19 108.933 271.632C107.099 273.074 104.865 275.951 104.904 281.251C104.904 282.348 104.781 283.031 101.964 285.263C95.3433 290.688 87.72 294.759 79.5278 297.244C67.5767 300.742 57.2682 307.622 48.9861 317.694C42.5385 325.51 41.3795 334.569 45.9158 341.948C50.7592 349.864 61.0754 353.408 70.4781 350.347C80.4565 347.087 93.1368 341.718 102.348 329.015C107.452 321.974 113.616 315.492 120.554 308.351C121.025 307.884 121.589 307.523 122.209 307.29C122.83 307.057 123.493 306.959 124.154 307.001C125.303 307.049 126.431 307.326 127.471 307.816C128.511 308.306 129.443 308.999 130.21 309.854C132.114 311.979 134.01 314.142 135.898 316.306C143.182 324.628 150.72 333.242 159.608 340.306C180.072 356.568 201.771 365.619 224.545 367.537C243.312 369.071 262.816 365.742 282.919 357.481C287.923 355.425 292.713 352.878 297.341 350.47L299.214 349.496L314.305 369.723L354.602 338.481L350.726 333.633L346.305 328.072C342.989 323.892 339.849 319.926 336.58 316.006C349.03 299.898 357.473 282.256 361.695 263.455C369.57 228.539 364.258 193.109 346.105 158.086Z" stroke="#E9CDBD" stroke-miterlimit="10"/>
<path d="M342.283 169.093C305.363 98.3013 248.194 86.9644 248.194 86.9644C248.194 86.9644 257.19 96.8209 261.174 101.607C263.615 104.553 266.14 107.598 268.519 110.62C289.106 136.761 302.108 160.555 309.439 185.485C316.262 208.665 316.838 229.552 311.212 249.326C308.868 257.84 305.217 265.939 300.389 273.335L222.35 178.221L265.864 141.348L241.785 139.415C229.02 138.38 215.826 137.321 202.838 136.416C199.4 136.171 196.437 138.081 194.502 139.538C181.139 149.625 168.213 159.481 157.337 167.835C151.434 172.36 145.554 176.916 139.844 181.335L127.632 190.777L161.405 231.216L166.893 226.829C167.845 226.062 168.812 225.295 169.764 224.527L176.088 219.158C182.114 214.065 188.331 208.811 194.387 203.503C209.949 224.505 225.556 245.471 241.209 266.401L260.352 292.09C263.07 295.741 265.764 299.415 268.504 303.173L268.657 303.381L268.327 303.565C254.02 311.235 240.111 314.833 225.697 314.342C208.81 313.759 195.638 308.612 185.437 298.602C180.51 293.769 175.812 288.369 171.276 283.146C168.973 280.484 166.67 277.822 164.275 275.207C163.193 274.01 162.364 273.021 161.689 272.215C156.753 266.317 153.944 266.286 147.458 269.201C146.522 269.623 145.386 270.129 143.989 270.735C140.297 272.269 137.203 273.151 134.156 272.407C129.551 271.279 126.565 272.63 124.884 273.941C123.203 275.253 121.169 277.914 121.215 282.777C121.215 283.79 121.107 284.411 118.521 286.475C112.456 291.466 105.469 295.219 97.9573 297.52C86.9233 300.811 77.1571 307.389 69.964 316.374C64.0691 323.562 63.0559 331.884 67.1777 338.619C71.645 345.875 81.1245 349.105 89.7136 346.289C98.9245 343.267 110.499 338.312 118.92 326.63C123.594 320.148 129.236 314.188 135.584 307.615C136.016 307.185 136.534 306.851 137.104 306.636C137.674 306.42 138.283 306.328 138.892 306.364C139.947 306.407 140.982 306.659 141.938 307.107C142.893 307.555 143.75 308.189 144.457 308.972C146.215 310.913 147.949 312.892 149.692 314.871C156.4 322.503 163.339 330.396 171.514 336.855C190.342 351.735 210.291 360.02 231.192 361.692C248.432 363.073 266.288 359.951 284.761 352.326C289.367 350.424 293.742 348.1 297.986 345.852L299.698 344.955L313.606 363.449L350.519 334.646L346.95 330.212C345.553 328.479 344.202 326.783 342.874 325.119C339.804 321.284 336.925 317.648 333.916 314.066C345.307 299.246 353.021 283 356.851 265.741C363.974 233.717 359.031 201.178 342.283 169.093Z" stroke="#E2BCAA" stroke-miterlimit="10"/>
<path d="M338.46 180.1C304.625 115.737 252.538 105.573 252.538 105.573C252.538 105.573 260.758 114.502 264.412 118.874C266.646 121.543 268.956 124.312 271.136 127.058C289.957 150.837 301.839 172.437 308.616 195.127C314.895 216.221 315.479 235.236 310.405 253.261C308.298 261.02 304.999 268.405 300.626 275.153L229.28 188.783L268.803 155.033L246.865 153.337C235.237 152.432 223.217 151.497 211.388 150.714C208.257 150.507 205.562 152.248 203.812 153.583C191.662 162.788 179.926 171.839 170.039 179.463C164.666 183.598 159.339 187.763 154.143 191.805L143.051 200.442L173.915 237.23L178.897 233.211C179.757 232.528 180.639 231.822 181.499 231.094L187.248 226.192C192.721 221.536 198.37 216.727 203.874 211.879C218.099 230.958 232.363 250.007 246.666 269.024L264.174 292.366C266.669 295.679 269.125 299.024 271.635 302.437L271.773 302.621L271.474 302.79C258.463 309.824 245.806 313.138 232.681 312.762C217.291 312.279 205.294 307.63 195.975 298.541C191.47 294.153 187.179 289.252 183.027 284.511C180.908 282.087 178.79 279.671 176.633 277.293C175.642 276.212 174.883 275.307 174.269 274.578C169.755 269.209 167.192 269.208 161.297 271.87C160.445 272.261 159.416 272.722 158.142 273.259C154.78 274.678 152.001 275.475 149.192 274.793C144.986 273.773 142.284 275.015 140.749 276.227C139.214 277.439 137.371 279.863 137.425 284.289C137.425 285.209 137.333 285.777 134.984 287.664C129.47 292.223 123.111 295.653 116.271 297.758C106.231 300.789 97.3547 306.807 90.8259 315.009C85.4529 321.575 84.5472 329.154 88.3543 335.298C92.4455 341.895 101.081 344.809 108.902 342.201C117.246 339.432 127.807 334.884 135.445 324.222C139.682 318.308 144.801 312.854 150.566 306.856C150.956 306.461 151.427 306.154 151.946 305.955C152.465 305.757 153.02 305.671 153.575 305.705C154.535 305.739 155.478 305.965 156.35 306.37C157.221 306.774 158.003 307.349 158.648 308.06C160.253 309.832 161.842 311.627 163.438 313.429C169.579 320.333 175.911 327.528 183.395 333.373C200.581 346.865 218.772 354.359 237.816 355.824C253.5 357.046 269.754 354.155 286.58 347.149C290.755 345.4 294.746 343.275 298.607 341.22L300.142 340.391L312.861 357.189L346.404 330.88L343.142 326.845C341.868 325.311 340.632 323.731 339.419 322.243C336.625 318.76 333.977 315.462 331.229 312.202C341.298 299.218 348.374 284.174 351.954 268.142C358.393 238.895 353.803 209.294 338.46 180.1Z" stroke="#DBAB99" stroke-miterlimit="10"/>
<path d="M334.63 191.107C303.927 133.164 256.875 124.182 256.875 124.182C256.875 124.182 264.321 132.228 267.621 136.14C269.648 138.541 271.735 141.027 273.708 143.496C290.771 164.851 301.586 184.319 307.757 204.761C313.484 223.768 314.082 240.912 309.569 257.197C307.694 264.202 304.745 270.876 300.826 276.979L236.166 199.315L271.697 168.771L251.909 167.321C241.416 166.554 230.571 165.741 219.901 165.074C217.069 164.897 214.643 166.485 213.07 167.689C202.147 176.05 191.578 184.242 182.705 191.146C177.877 194.897 173.072 198.671 168.405 202.337L158.427 210.161L186.404 243.19L190.887 239.547C191.655 238.925 192.422 238.289 193.19 237.629L198.363 233.188C203.276 228.969 208.342 224.612 213.3 220.225C226.2 237.381 239.134 254.512 252.101 271.617L267.974 292.611C270.231 295.595 272.457 298.602 274.737 301.67L274.859 301.839L274.591 301.993C262.885 308.382 251.479 311.404 239.636 311.09C225.75 310.706 214.912 306.557 206.476 298.387C202.401 294.445 198.509 290.042 194.748 285.777C192.829 283.606 190.91 281.428 188.961 279.296C188.062 278.314 187.372 277.508 186.819 276.849C182.728 272.031 180.417 272.024 175.106 274.455C174.338 274.808 173.41 275.222 172.266 275.713C169.242 277.002 166.709 277.738 164.199 277.148C160.399 276.243 157.966 277.37 156.592 278.475C155.218 279.579 153.522 281.765 153.629 285.762C153.629 286.59 153.552 287.104 151.442 288.83C146.489 292.972 140.77 296.1 134.609 298.035C125.565 300.801 117.582 306.26 111.728 313.682C106.915 319.627 106.109 326.469 109.563 331.992C113.27 337.929 121.077 340.529 128.115 338.128C135.637 335.597 145.14 331.455 151.994 321.813C155.832 316.444 160.438 311.535 165.573 306.096C165.925 305.742 166.349 305.465 166.816 305.286C167.283 305.106 167.782 305.027 168.282 305.053C169.152 305.077 170.008 305.277 170.8 305.639C171.591 306.002 172.301 306.52 172.888 307.162C174.338 308.75 175.781 310.369 177.224 311.98C182.774 318.208 188.523 324.651 195.27 329.913C210.821 342.025 227.255 348.721 244.441 349.972C258.61 350.994 273.258 348.328 288.384 341.971C292.145 340.384 295.737 338.451 299.214 336.602L300.611 335.835L312.125 350.946L342.29 327.098L339.335 323.47C338.176 322.051 337.033 320.67 335.958 319.305C333.425 316.175 331.03 313.215 328.536 310.277C337.576 298.535 343.913 284.945 347.095 270.474C352.814 244.072 348.577 217.387 334.63 191.107Z" stroke="#D49A88" stroke-miterlimit="10"/>
<path d="M330.801 202.114C303.168 150.599 261.213 142.791 261.213 142.791C261.213 142.791 267.883 149.932 270.838 153.399C272.65 155.539 274.53 157.74 276.296 159.934C291.594 178.903 301.319 196.208 306.899 214.395C312.088 231.309 312.694 246.611 308.741 261.116C307.097 267.36 304.494 273.311 301.027 278.758L243.075 209.816L274.615 182.432L256.961 181.228C247.604 180.576 237.933 179.908 228.422 179.356C225.897 179.21 223.748 180.637 222.343 181.718C212.641 189.213 203.269 196.561 195.378 202.751C191.088 206.119 186.828 209.501 182.683 212.792L173.84 219.841L198.925 249.166L202.901 245.898C203.591 245.346 204.29 244.778 204.981 244.18L209.586 240.199C213.946 236.417 218.452 232.528 222.842 228.578C234.417 243.822 246.018 259.04 257.644 274.233L271.882 292.872C273.909 295.519 275.912 298.188 277.954 300.919L278.061 301.064L277.823 301.202C267.415 306.948 257.26 309.694 246.706 309.456C234.325 309.18 224.646 305.529 217.093 298.288C213.447 294.782 209.962 290.87 206.585 287.089C204.866 285.163 203.154 283.253 201.396 281.336C200.59 280.469 199.976 279.748 199.477 279.165C195.808 274.892 193.751 274.892 189.031 277.079C188.348 277.393 187.496 277.777 186.505 278.221C183.811 279.38 181.562 280.047 179.321 279.525C175.936 278.758 173.764 279.756 172.543 280.745C171.323 281.735 169.857 283.691 169.934 287.25C169.934 288.017 169.872 288.446 167.999 289.973C163.599 293.681 158.514 296.49 153.032 298.242C144.982 300.748 137.889 305.647 132.699 312.286C128.446 317.594 127.748 323.7 130.849 328.609C134.188 333.886 141.15 336.172 147.421 334.025C154.106 331.723 162.565 328.003 168.636 319.382C171.998 314.595 176.074 310.177 180.672 305.314C180.985 304.997 181.362 304.749 181.777 304.587C182.192 304.425 182.637 304.351 183.082 304.37C183.854 304.39 184.613 304.565 185.316 304.884C186.019 305.202 186.65 305.659 187.173 306.227C188.478 307.638 189.768 309.072 191.065 310.507C196.039 316.037 201.189 321.752 207.23 326.415C221.138 337.154 235.814 343.045 251.135 344.058C263.769 344.917 276.818 342.477 290.281 336.74C293.628 335.306 296.821 333.572 299.914 331.892L301.157 331.21L311.497 344.633L338.285 323.247L335.637 320.033C334.613 318.776 333.605 317.543 332.612 316.336C330.31 313.56 328.191 310.921 325.95 308.321C333.962 297.816 339.555 285.674 342.33 272.76C347.242 249.242 343.343 225.479 330.801 202.114Z" stroke="#CD8977" stroke-miterlimit="10"/>
<path d="M326.978 213.122C302.416 168.035 265.572 161.399 265.572 161.399C265.572 161.399 271.467 167.636 274.077 170.665C275.681 172.529 277.339 174.455 278.905 176.372C292.437 192.948 301.072 208.09 306.069 224.037C310.721 238.864 311.335 252.28 307.942 265.059C306.529 270.556 304.277 275.803 301.264 280.615L249.975 220.355L277.531 196.139L262.026 195.173C253.805 194.651 245.308 194.122 236.957 193.685C234.739 193.57 232.858 194.835 231.63 195.794C223.187 202.429 214.959 208.926 208.066 214.411C204.32 217.387 200.59 220.378 196.967 223.293L189.23 229.56L211.412 255.172L214.889 252.287C215.488 251.797 216.102 251.29 216.701 250.753L220.708 247.233C224.546 243.888 228.46 240.437 232.298 236.962C242.532 250.283 252.8 263.579 263.101 276.849L275.696 293.141C277.493 295.442 279.266 297.789 281.069 300.175L281.169 300.305L280.962 300.428C271.851 305.521 262.947 307.991 253.675 307.838C242.806 307.661 234.286 304.501 227.616 298.188C224.392 295.12 221.314 291.714 218.336 288.408C216.801 286.728 215.266 285.041 213.73 283.384C213.017 282.617 212.472 282.003 212.034 281.489C208.787 277.761 206.983 277.769 202.823 279.717C202.225 279.993 201.503 280.339 200.613 280.73C198.256 281.765 196.276 282.356 194.311 281.919C191.333 281.244 189.429 282.149 188.37 283.023C187.311 283.898 186.021 285.616 186.067 288.746C186.067 289.398 186.021 289.797 184.379 291.154C180.537 294.434 176.088 296.925 171.284 298.487C164.229 300.73 158.028 305.071 153.507 310.929C149.799 315.616 149.224 320.977 151.972 325.273C154.927 329.875 161.052 331.862 166.556 329.936C172.42 327.896 179.827 324.567 185.108 316.965C188.306 312.585 191.812 308.437 195.6 304.555C195.873 304.273 196.202 304.052 196.566 303.907C196.929 303.762 197.32 303.695 197.711 303.711C198.39 303.724 199.059 303.874 199.678 304.151C200.298 304.428 200.856 304.826 201.319 305.322C202.47 306.557 203.622 307.807 204.758 309.057C209.156 313.89 213.707 318.875 219.034 322.941C231.315 332.291 244.226 337.392 257.689 338.228C268.781 338.918 280.248 336.694 292.015 331.593C294.939 330.32 297.741 328.77 300.458 327.282L301.548 326.676L310.705 338.412L334.109 319.489L331.768 316.674C330.846 315.577 329.964 314.503 329.089 313.445C327.085 311.021 325.182 308.72 323.201 306.442C330.182 297.176 335.028 286.484 337.394 275.13C341.661 254.42 338.1 233.572 326.978 213.122Z" stroke="#C67868" stroke-miterlimit="10"/>
<path d="M323.148 223.983C301.694 185.324 269.886 179.862 269.886 179.862C269.886 179.862 275.006 185.193 277.278 187.786C278.667 189.381 280.11 191.031 281.469 192.672C293.243 206.847 300.781 219.833 305.202 233.533C309.301 246.266 309.922 257.818 307.09 268.817C305.917 273.564 304.013 278.1 301.448 282.264L256.883 230.741L280.44 209.701L267.084 208.934C260 208.543 252.685 208.167 245.477 207.829C243.574 207.745 241.962 208.842 240.91 209.678C233.657 215.454 226.641 221.107 220.738 225.878C217.538 228.463 214.344 231.071 211.251 233.602L204.627 238.971L223.908 261.009L226.879 258.501C227.393 258.079 227.923 257.634 228.414 257.181L231.845 254.113C235.107 251.206 238.469 248.207 241.754 245.185C250.668 256.583 259.603 267.966 268.558 279.334L279.542 293.225C281.077 295.212 282.612 297.206 284.216 299.247L284.301 299.361L284.117 299.461C276.31 303.918 268.658 306.104 260.675 306.042C251.311 305.958 243.95 303.297 238.162 297.904C235.361 295.296 232.689 292.374 230.095 289.551C228.775 288.109 227.455 286.667 226.111 285.255C225.49 284.603 225.021 284.066 224.638 283.637C221.821 280.438 220.262 280.461 216.716 282.164C216.202 282.417 215.58 282.709 214.813 283.054C212.794 283.959 211.09 284.488 209.394 284.12C206.822 283.56 205.195 284.35 204.282 285.117C203.368 285.884 202.286 287.373 202.378 290.057C202.378 290.617 202.34 290.97 200.943 292.144C197.655 294.995 193.84 297.173 189.713 298.556C183.654 300.532 178.343 304.311 174.492 309.387C171.33 313.452 170.869 318.078 173.264 321.759C175.843 325.717 181.132 327.367 185.852 325.671C190.887 323.877 197.243 320.962 201.741 314.373C204.465 310.585 207.456 306.997 210.691 303.634C210.922 303.386 211.202 303.189 211.515 303.057C211.827 302.925 212.163 302.86 212.502 302.867C213.087 302.875 213.663 303 214.199 303.234C214.734 303.469 215.217 303.808 215.619 304.232C216.624 305.283 217.614 306.357 218.604 307.423C222.442 311.558 226.38 315.822 231.001 319.282C241.639 327.252 252.8 331.555 264.398 332.184C273.962 332.695 283.799 330.711 293.911 326.231C296.428 325.111 298.823 323.762 301.141 322.458L302.078 321.936L310.045 331.977L330.071 315.516L328.037 313.107C327.239 312.171 326.471 311.251 325.734 310.346C323.992 308.267 322.334 306.303 320.615 304.355C326.562 296.324 330.663 287.082 332.627 277.286C336.081 259.475 332.88 241.526 323.148 223.983Z" stroke="#C06859" stroke-miterlimit="10"/>
<path d="M319.31 234.814C300.95 202.598 274.215 198.294 274.215 198.294C274.215 198.294 278.56 202.72 280.486 204.876C281.676 206.195 282.904 207.568 284.056 208.934C294.034 220.715 300.512 231.539 304.343 242.991C307.912 253.637 308.534 263.325 306.262 272.607C305.322 276.598 303.769 280.42 301.656 283.936L263.792 241.127L283.357 223.254L272.143 222.771C266.202 222.51 260.054 222.242 254.013 222.004C252.582 222.053 251.218 222.62 250.175 223.599C244.134 228.509 238.308 233.318 233.404 237.406C230.74 239.608 228.084 241.825 225.505 243.972L220.002 248.575L236.382 266.777L238.853 264.637C239.283 264.276 239.721 263.87 240.143 263.517L242.991 260.917C245.7 258.447 248.494 255.9 251.219 253.33C258.803 262.821 266.407 272.282 274.031 281.711L283.357 293.309C284.685 294.959 285.998 296.623 287.333 298.318L287.41 298.41L287.256 298.502C280.747 302.337 274.354 304.217 267.653 304.232C259.793 304.232 253.598 302.092 248.686 297.62C246.314 295.457 244.081 293.018 241.847 290.717C240.726 289.52 239.606 288.323 238.462 287.15C237.932 286.613 237.533 286.168 237.211 285.808C234.816 283.154 233.511 283.184 230.548 284.649C230.118 284.856 229.604 285.117 228.959 285.416C227.271 286.183 225.851 286.659 224.423 286.36C223.691 286.158 222.922 286.133 222.179 286.287C221.436 286.44 220.74 286.767 220.148 287.242C219.579 287.766 219.144 288.418 218.877 289.143C218.61 289.869 218.519 290.647 218.613 291.415C218.613 291.882 218.613 292.182 217.423 293.171C214.693 295.594 211.514 297.457 208.066 298.656C203.003 300.364 198.582 303.575 195.394 307.86C192.776 311.297 192.438 315.178 194.48 318.246C195.643 319.877 197.317 321.074 199.236 321.647C201.156 322.221 203.212 322.139 205.08 321.414C209.287 319.88 214.591 317.356 218.298 311.788C220.547 308.573 223.025 305.526 225.713 302.667C225.908 302.458 226.147 302.293 226.411 302.183C226.676 302.073 226.961 302.021 227.248 302.031C227.741 302.038 228.228 302.145 228.68 302.346C229.131 302.546 229.537 302.835 229.873 303.197C230.725 304.071 231.569 304.961 232.406 305.851C235.653 309.279 239.015 312.823 242.922 315.684C251.917 322.266 261.343 325.779 271.053 326.193C279.082 326.538 287.341 324.782 295.769 320.923C297.864 319.964 299.868 318.806 301.794 317.694L302.562 317.241L309.339 325.594L325.988 311.596L324.253 309.602L322.273 307.3C320.792 305.575 319.387 303.941 317.921 302.322C322.838 295.532 326.193 287.739 327.746 279.502C330.494 264.453 327.638 249.442 319.31 234.814Z" stroke="#B9574C" stroke-miterlimit="10"/>
<path d="M315.472 245.668C300.205 219.857 278.545 216.75 278.545 216.75C278.545 216.75 282.114 220.263 283.703 221.981C284.678 223.032 285.683 224.129 286.635 225.211C294.879 234.607 300.236 243.267 303.483 252.472C306.507 261.032 307.144 268.848 305.425 276.381C304.717 279.614 303.513 282.719 301.856 285.585L270.677 251.49L286.259 236.778L277.186 236.54C272.381 236.402 267.407 236.271 262.525 236.187C261.375 236.258 260.288 236.733 259.455 237.529C254.65 241.579 249.999 245.545 246.084 248.889C243.966 250.7 241.847 252.525 239.798 254.259L235.407 258.048L248.886 272.538L250.858 270.781C251.196 270.482 251.549 270.175 251.887 269.853L254.151 267.713C256.308 265.688 258.534 263.586 260.699 261.477C266.952 269.04 273.223 276.59 279.512 284.128L287.187 293.379C288.285 294.698 289.367 296.025 290.473 297.375L290.534 297.452L290.411 297.528C285.199 300.689 280.057 302.315 274.638 302.422C268.29 302.545 263.255 300.888 259.225 297.321C257.283 295.611 255.387 293.678 253.606 291.814C252.678 290.863 251.756 289.904 250.82 288.976C250.39 288.546 250.052 288.209 249.791 287.902C247.819 285.792 246.767 285.831 244.418 287.058C244.081 287.234 243.651 287.449 243.152 287.695C241.801 288.347 240.657 288.738 239.498 288.516C238.904 288.362 238.282 288.352 237.683 288.485C237.084 288.618 236.525 288.892 236.052 289.283C235.597 289.712 235.251 290.243 235.043 290.833C234.835 291.423 234.77 292.053 234.854 292.673C234.854 293.056 234.854 293.286 233.918 294.115C231.742 296.107 229.197 297.655 226.427 298.671C222.354 300.124 218.822 302.784 216.302 306.296C214.238 309.111 214 312.256 215.704 314.733C216.663 316.038 218.03 316.984 219.589 317.423C221.148 317.863 222.809 317.769 224.308 317.157C227.693 315.838 231.945 313.752 234.87 309.203C236.649 306.578 238.611 304.081 240.742 301.732C240.895 301.563 241.082 301.428 241.291 301.337C241.5 301.246 241.726 301.2 241.955 301.202C242.351 301.197 242.744 301.27 243.111 301.418C243.479 301.565 243.814 301.784 244.096 302.062C244.795 302.76 245.485 303.465 246.176 304.179C248.81 307.034 251.698 309.645 254.804 311.98C262.157 317.188 269.81 319.896 277.685 320.103C284.171 320.279 290.818 318.745 297.58 315.5C299.269 314.733 300.866 313.736 302.416 312.808L303.038 312.44L308.626 319.098L321.897 307.592L320.469 306.004C319.909 305.383 319.372 304.769 318.842 304.171C317.614 302.798 316.455 301.494 315.258 300.205C319.137 294.652 321.742 288.311 322.887 281.635C324.906 269.446 322.396 257.35 315.472 245.668Z" stroke="#B3473F" stroke-miterlimit="10"/>
<path d="M311.626 256.46C299.453 237.077 282.858 235.144 282.858 235.144C282.858 235.144 285.652 237.752 286.903 239.033C287.671 239.8 288.438 240.628 289.206 241.433C295.692 248.437 299.952 254.941 302.615 261.898C305.094 268.365 305.739 274.317 304.588 280.1C304.108 282.585 303.249 284.98 302.039 287.203L277.562 261.822L289.152 250.316H282.244C278.575 250.316 274.775 250.316 271.045 250.316C270.173 250.39 269.356 250.773 268.742 251.397C265.15 254.588 261.688 257.703 258.764 260.334C257.183 261.76 255.601 263.202 254.074 264.591L250.796 267.575L261.343 278.352L262.809 276.971C263.062 276.741 263.323 276.495 263.576 276.25L265.257 274.57C266.862 272.975 268.52 271.333 270.132 269.676C275.059 275.301 279.997 280.926 284.946 286.551L291.002 293.455L293.589 296.431L293.635 296.485L293.542 296.546C290.009 298.962 285.881 300.365 281.607 300.604C276.771 300.826 272.887 299.653 269.748 297.029C268.213 295.756 266.762 294.322 265.342 292.933C264.62 292.228 263.899 291.522 263.162 290.824C262.824 290.51 262.563 290.241 262.394 290.057C260.859 288.523 260.046 288.523 258.257 289.52C257.996 289.666 257.689 289.834 257.298 290.034C256.475 290.563 255.503 290.81 254.527 290.74C254.071 290.635 253.597 290.639 253.144 290.752C252.69 290.866 252.27 291.085 251.917 291.392C251.578 291.729 251.323 292.142 251.175 292.597C251.027 293.051 250.989 293.535 251.065 294.007C251.065 294.291 251.065 294.475 250.382 295.119C248.766 296.686 246.856 297.918 244.763 298.748C241.684 299.939 239.044 302.043 237.195 304.777C235.66 306.963 235.56 309.379 236.903 311.204C237.664 312.178 238.727 312.87 239.925 313.173C241.123 313.476 242.388 313.372 243.52 312.877C246.076 311.803 249.277 310.123 251.418 306.587C252.723 304.549 254.169 302.607 255.747 300.773C255.86 300.64 256 300.533 256.157 300.459C256.315 300.385 256.487 300.345 256.661 300.343C257.27 300.321 257.864 300.542 258.311 300.957C258.856 301.478 259.401 302 259.938 302.529C262.01 304.652 264.265 306.587 266.677 308.313C272.404 312.133 278.288 314.043 284.332 314.043C289.604 313.963 294.781 312.625 299.43 310.138C300.696 309.494 301.894 308.727 303.06 307.991L303.529 307.691L307.927 312.662L317.821 303.588L316.7 302.406L315.418 301.041C314.459 300.013 313.545 299.047 312.601 298.088C315.452 293.771 317.313 288.878 318.051 283.759C319.302 274.432 317.145 265.25 311.626 256.46Z" stroke="#AD3734" stroke-miterlimit="10"/>
</g>
<defs>
<clipPath id="clip0_182:854">
<rect width="683" height="382" fill="white" transform="translate(0 0.786133)"/>
</clipPath>
</defs>
</svg>
