<svg width="683" height="383" fill="none" xmlns="http://www.w3.org/2000/svg"><g clip-path="url(#a)" stroke-miterlimit="10"><path d="m554.8 322.887 127.286-71.666-38.746-14.029 30.656-73.361-69.588 5.354.699-37.984-63.248 45.938 33.735-120.534-47.958 13.224L506.052 1.66 466.146 61l-42.293-26.172-1.574 125.152-47.751-61.87-10.032 36.65-65.266-24.707 8.758 79.022-41.127 2.562 101.964 104.557-27.156 41.605 114.053-18.172-11.682 52.405 8.612 1.235 8.62 1.235 3.538-53.571 104.328 49.506-14.338-47.55Z" stroke="#F8EFE2"/><path d="m549.712 320.486 117.906-66.833-35.991-12.91 28.246-68.145-64.545 5.155.545-35.246-58.55 42.794L568.294 73.38l-44.457 12.395-20.21-63.182-36.867 55.159-39.307-24.17-1.129 116.117-44.465-57.276-9.211 34.034-60.615-22.751 8.336 73.292-38.148 2.485 94.879 96.741-25.076 38.659 105.763-17.158-10.7 48.654 7.998 1.12 7.991 1.127 3.147-49.713 96.921 45.648-13.432-44.075Z" stroke="#F0DECF"/><path d="m544.63 318.077 108.512-61.993-33.22-11.789 25.836-62.929-59.51 4.955.392-32.508-53.861 39.641 28.208-103.299-40.957 11.568-18.829-58.204-33.827 50.978-36.329-22.16-.667 107.08-41.188-52.673-8.382 31.403-55.979-20.787 7.921 67.562-35.17 2.408 87.795 88.917-23.004 35.737 97.481-16.162-9.725 44.896 7.384 1.012 7.377 1.013 2.74-45.854 89.529 41.796-12.527-40.608Z" stroke="#E9CDBD"/><path d="m539.542 315.677 99.131-57.161-30.465-10.67 23.427-57.713-54.467 4.748.238-29.761-49.171 36.496 25.453-94.693-37.458 10.747-17.462-53.226-30.779 46.805-33.344-20.158-.222 98.045-37.903-48.079-7.56 28.788-51.328-18.832 7.499 61.833-32.199 2.339 80.717 81.085-20.931 32.807 89.191-15.149-8.734 41.137 6.762.905 6.762.897 2.341-41.996 82.123 37.946-11.621-37.14Z" stroke="#E2BCAA"/><path d="m534.461 313.276 89.744-52.321-27.702-9.557 21.009-52.505-49.424 4.556.084-27.023-44.48 33.352 22.697-86.079-33.965 9.918-16.081-48.24-27.74 42.625-30.357-18.156.23 89.009-34.625-43.484-6.74 26.171-46.676-16.867 7.077 56.094-29.221 2.263 73.633 73.261-18.859 29.877 80.91-14.144-7.753 37.386 6.141.79 6.14.79 1.942-38.138 74.723 34.088-10.707-33.666Z" stroke="#DBAB99"/><path d="m529.37 310.875 80.365-47.488-24.946-8.446 18.606-47.281-44.389 4.357-.069-24.285-39.783 30.207 19.926-77.465-30.457 9.09-14.707-43.262-24.701 38.452-27.371-16.154.675 79.973-31.34-38.89-5.918 23.557-42.024-14.912 6.655 50.365-26.244 2.193 66.549 65.438-16.787 26.939 72.62-13.14-6.762 33.635 5.519.675 5.526.675 1.543-34.272 67.316 30.23-9.802-30.191Z" stroke="#D49A88"/><path d="m524.289 308.474 70.969-42.656-22.175-7.325 16.188-42.065-39.345 4.157-.223-21.539-35.093 27.047 17.17-68.843-26.964 8.261-13.325-38.276-21.661 34.264-24.386-14.152 1.121 70.945-28.055-34.288-5.089 20.926-37.388-12.948 6.24 44.635-23.265 2.117 59.464 57.613-14.715 24.009 64.338-12.135-5.78 29.884 4.905.568 4.897.56 1.144-30.414 59.916 26.372-8.888-26.717Z" stroke="#CD8977"/><path d="m519.2 306.073 61.59-37.823-19.42-6.206 13.778-36.849-34.302 3.951-.369-18.793-30.411 23.901 14.415-60.229-23.465 7.433-11.951-33.298-18.621 30.092-21.4-12.15 1.574 61.916-24.778-29.7-4.267 18.309-32.737-10.992 5.818 38.913-20.287 2.033 52.379 49.789-12.642 21.079 56.048-11.123-4.789 26.126 4.283.453 4.283.445.744-26.556 52.518 22.521-7.991-23.242Z" stroke="#C67868"/><path d="m514.119 303.672 52.203-32.991-16.657-5.085 11.368-31.634-29.267 3.751-.522-16.054-25.722 20.756 11.652-51.615-19.964 6.605-10.578-28.312-15.574 25.911-18.414-10.148 2.019 52.88-21.492-25.098-3.446 15.687-28.086-9.029 5.396 33.175-17.308 1.964 45.294 41.958-10.57 18.148 47.766-10.117-3.807 22.375 3.662.337 3.661.338.345-22.697 45.118 18.67-7.077-19.775Z" stroke="#C06859"/><path d="m509.03 301.271 42.823-28.15-13.901-3.974 8.958-26.417-24.224 3.551-.676-13.316-21.031 17.604 8.896-43.001-16.465 5.791-9.203-23.341-12.534 21.731-15.436-8.139 2.479 43.845-18.214-20.503-2.625 13.07-23.434-7.072 4.973 27.445-14.33 1.887 38.21 34.142-8.497 15.21 39.476-9.112-2.817 18.624 3.039.222 3.048.23-.054-18.839 37.711 14.812-6.172-16.3Z" stroke="#B9574C"/><path d="m503.949 298.87 33.436-23.318-11.146-2.861 6.548-21.202-19.182 3.36-.829-10.578-16.334 14.459 6.133-34.387-12.964 4.963-7.829-18.355-9.495 17.55-12.45-6.137 2.924 34.809-14.921-15.908-1.804 10.447-18.798-5.109 4.56 21.716-11.36 1.81 31.132 26.317-6.424 12.281 31.194-8.108-1.842 14.873 2.433.115 2.425.108-.46-14.973 30.311 10.953-5.258-12.825Z" stroke="#B3473F"/><path d="m498.86 296.469 24.049-18.485-8.375-1.742 4.138-15.985-14.155 3.153-.974-7.824-11.644 11.306 3.377-25.773-9.472 4.134-6.447-13.377-6.456 13.377-9.464-4.134 3.37 25.773-11.637-11.306-.982 7.824-14.146-3.153 4.137 15.985-8.382 1.742 24.048 18.485-4.352 9.351 22.912-7.095-.86 11.114h3.615l-.852-11.114 22.905 7.095-4.353-9.351Z" stroke="#AD3734"/><path d="M353.757 136.063c-46.2-90.067-118.582-104.925-118.582-104.925s11.322 12.572 16.326 18.678c3.071 3.75 6.248 7.632 9.211 11.506 25.867 33.328 42.155 63.596 51.236 95.275 8.443 29.447 8.995 55.926 1.688 80.955a108.314 108.314 0 0 1-13.916 30.36l-98.126-121.194 55.48-46.392-30.48-2.7c-16.173-1.419-32.898-2.884-49.347-4.142-4.36-.337-8.137 2.064-10.593 3.89-17.04 12.671-33.504 25.089-47.367 35.56a5165.537 5165.537 0 0 0-22.298 16.967l-15.558 11.866 42.515 51.539 6.993-5.523a133.824 133.824 0 0 0 3.654-2.915l8.067-6.742c7.675-6.405 15.604-13.04 23.334-19.691a24287.007 24287.007 0 0 0 58.788 80.142l24.048 32.73c3.424 4.656 6.801 9.335 10.247 14.122l.192.268-.422.23c-18.161 9.696-35.869 14.037-54.137 13.293-21.415-.874-38.056-7.517-50.905-20.296-6.21-6.137-12.112-13.04-17.831-19.713-2.917-3.398-5.826-6.789-8.796-10.133a104.928 104.928 0 0 1-3.255-3.835c-6.217-7.517-9.778-7.586-18.022-3.951-1.19.53-2.633 1.166-4.406 1.895-4.698 1.918-8.628 2.999-12.48 2.033-5.842-1.473-9.634.214-11.775 1.894-2.142 1.68-4.744 5.009-4.729 11.169 0 1.281-.145 2.071-3.446 4.663-8.49 6.681-17.048 11.199-26.166 13.807-13.932 4.02-25.921 11.982-35.646 23.664-7.546 9.059-8.935 19.606-3.73 28.204 5.602 9.205 17.592 13.416 28.507 9.903 11.66-3.751 26.42-9.972 37.204-24.676 5.98-8.169 13.18-15.686 21.285-23.963a5.455 5.455 0 0 1 4.198-1.534 9.983 9.983 0 0 1 7.039 3.352c2.211 2.478 4.398 5.009 6.593 7.532 8.444 9.727 17.163 19.79 27.472 28.052 23.741 19.023 48.963 29.708 75.452 32.001 21.845 1.902 44.509-1.902 67.991-11.414 5.834-2.37 11.422-5.277 16.825-8.092l2.18-1.128 17.478 23.572 47.06-36.167-4.491-5.66c-1.75-2.21-3.446-4.373-5.119-6.497-3.838-4.879-7.476-9.512-11.268-14.091 14.584-18.678 24.493-39.212 29.498-61.042 9.272-40.577 3.292-81.845-17.67-122.706Z" stroke="#F8EFE2"/><path d="M349.936 147.071c-43.115-83.61-110.415-97.324-110.415-97.324s10.539 11.667 15.205 17.335c2.863 3.483 5.819 7.08 8.605 10.655 24.117 30.935 39.3 59.063 47.804 88.479 7.899 27.353 8.444 51.968 1.712 75.248a100.574 100.574 0 0 1-12.88 28.228l-91.433-112.504 51.496-43.223-28.4-2.417c-15.036-1.296-30.587-2.623-45.885-3.766-4.053-.299-7.561 1.933-9.84 3.636-15.812 11.813-31.102 23.38-43.967 33.137-6.985 5.3-13.939 10.631-20.724 15.816l-14.446 11.054 39.584 47.856 6.493-5.147c1.121-.874 2.303-1.772 3.393-2.715l7.491-6.282c7.123-5.968 14.477-12.128 21.654-18.348a24495.578 24495.578 0 0 0 54.789 74.404l22.413 30.383c3.185 4.318 6.34 8.667 9.548 13.109l.185.245-.392.215c-16.886 8.967-33.32 13.117-50.306 12.457-19.911-.767-35.393-6.904-47.36-18.778-5.779-5.729-11.283-12.119-16.602-18.294-2.717-3.152-5.434-6.297-8.205-9.396a111.254 111.254 0 0 1-3.025-3.544c-5.795-6.98-9.103-7.034-16.763-3.636a162.492 162.492 0 0 1-4.092 1.764c-4.367 1.795-8.013 2.808-11.598 1.91-5.434-1.357-8.95.223-10.937 1.78-1.988 1.557-4.406 4.664-4.383 10.401 0 1.189-.13 1.925-3.186 4.334-7.883 6.221-15.835 10.447-24.301 12.902-12.941 3.766-24.079 11.183-33.098 22.06-6.992 8.438-8.274 18.241-3.415 26.226 5.227 8.583 16.372 12.441 26.52 9.151 10.83-3.498 24.562-9.281 34.54-23.012 5.55-7.609 12.227-14.574 19.75-22.321a5.074 5.074 0 0 1 3.899-1.45 9.343 9.343 0 0 1 6.547 3.069c2.057 2.301 4.099 4.648 6.141 6.995 7.86 9.028 15.996 18.363 25.591 26.026 22.098 17.642 45.563 27.53 70.194 29.616 20.31 1.728 41.369-1.851 63.179-10.739 5.426-2.209 10.608-4.924 15.627-7.548l2.027-1.05 16.288 21.876 43.736-33.628-4.183-5.254c-1.635-2.048-3.216-4.05-4.775-6.021-3.577-4.534-6.969-8.837-10.5-13.079 13.509-17.396 22.697-36.496 27.31-56.762 8.582-37.831 2.948-76.183-16.61-114.129Z" stroke="#F0DECF"/><path d="M346.105 158.086C306.092 80.866 243.857 68.34 243.857 68.34s9.771 10.739 14.093 15.986c2.648 3.214 5.373 6.543 7.975 9.84 22.351 28.535 36.444 54.462 44.365 81.669 7.354 25.267 7.929 48.018 1.743 69.541a93.321 93.321 0 0 1-11.852 26.126L215.442 167.72l47.505-40.056-26.228-2.171c-13.901-1.165-28.27-2.362-42.409-3.39-3.745-.269-6.985 1.803-9.088 3.383-14.584 10.946-28.699 21.677-40.566 30.682a3789.765 3789.765 0 0 0-19.097 14.658l-13.325 10.248 36.682 44.144 5.987-4.771a100.015 100.015 0 0 0 3.132-2.516l6.908-5.822c6.57-5.53 13.363-11.237 19.957-16.998a21000.66 21000.66 0 0 0 50.79 68.644l20.778 28.035c2.955 3.981 5.872 8.001 8.85 12.097l.169.222-.361.207c-15.612 8.315-30.771 12.189-46.468 11.614-18.422-.683-32.722-6.321-43.806-17.259-5.373-5.277-10.454-11.176-15.389-16.875-2.518-2.907-5.028-5.814-7.599-8.668a102.671 102.671 0 0 1-2.802-3.268c-5.373-6.435-8.443-6.481-15.497-3.329a118.779 118.779 0 0 1-3.784 1.642c-4.03 1.672-7.4 2.608-10.746 1.795-5.028-1.243-8.267.222-10.102 1.664-1.834 1.442-4.068 4.319-4.029 9.619 0 1.097-.123 1.78-2.94 4.012a65.312 65.312 0 0 1-22.436 11.981c-11.951 3.498-22.26 10.378-30.542 20.45-6.447 7.816-7.606 16.875-3.07 24.254 4.843 7.916 15.16 11.46 24.562 8.399 9.979-3.26 22.659-8.629 31.87-21.332 5.104-7.041 11.268-13.523 18.206-20.664a4.696 4.696 0 0 1 3.6-1.35 8.628 8.628 0 0 1 6.056 2.853c1.904 2.125 3.8 4.288 5.688 6.452 7.284 8.322 14.822 16.936 23.71 24 20.464 16.262 42.163 25.313 64.937 27.231 18.767 1.534 38.271-1.795 58.374-10.056 5.004-2.056 9.794-4.603 14.422-7.011l1.873-.974 15.091 20.227 40.297-31.242-3.876-4.848-4.421-5.561c-3.316-4.18-6.456-8.146-9.725-12.066 12.45-16.108 20.893-33.75 25.115-52.551 7.875-34.916 2.563-70.346-15.59-105.369Z" stroke="#E9CDBD"/><path d="M342.283 169.093c-36.92-70.792-94.089-82.129-94.089-82.129s8.996 9.857 12.98 14.643c2.441 2.946 4.966 5.991 7.345 9.013 20.587 26.141 33.589 49.935 40.92 74.865 6.823 23.18 7.399 44.067 1.773 63.841a85.382 85.382 0 0 1-10.823 24.009l-78.039-95.114 43.514-36.873-24.079-1.933c-12.765-1.035-25.959-2.094-38.947-2.999-3.438-.245-6.401 1.665-8.336 3.122a5679.568 5679.568 0 0 0-37.165 28.297c-5.903 4.525-11.783 9.081-17.493 13.5l-12.212 9.442 33.773 40.439 5.488-4.387c.952-.767 1.919-1.534 2.871-2.302l6.324-5.369c6.026-5.093 12.243-10.347 18.299-15.655a17669.757 17669.757 0 0 0 46.822 62.898l19.143 25.689a1381.31 1381.31 0 0 1 8.152 11.083l.153.208-.33.184c-14.307 7.67-28.216 11.268-42.63 10.777-16.887-.583-30.059-5.73-40.26-15.74-4.927-4.833-9.625-10.233-14.161-15.456-2.303-2.662-4.606-5.324-7.001-7.939a98.657 98.657 0 0 1-2.586-2.992c-4.936-5.898-7.745-5.929-14.231-3.014-.936.422-2.072.928-3.469 1.534-3.692 1.534-6.786 2.416-9.833 1.672-4.605-1.128-7.591.223-9.272 1.534-1.681 1.312-3.715 3.973-3.669 8.836 0 1.013-.108 1.634-2.694 3.698a60.035 60.035 0 0 1-20.564 11.045 56.57 56.57 0 0 0-27.993 18.854c-5.895 7.188-6.908 15.51-2.786 22.245 4.467 7.256 13.947 10.486 22.536 7.67 9.21-3.022 20.785-7.977 29.206-19.659 4.674-6.482 10.316-12.442 16.664-19.015a4.313 4.313 0 0 1 3.308-1.251 7.937 7.937 0 0 1 5.565 2.608c1.758 1.941 3.492 3.92 5.235 5.899 6.708 7.632 13.647 15.525 21.822 21.984 18.828 14.88 38.777 23.165 59.678 24.837 17.24 1.381 35.096-1.741 53.569-9.366 4.606-1.902 8.981-4.226 13.225-6.474l1.712-.897 13.908 18.494 36.913-28.803-3.569-4.434c-1.397-1.733-2.748-3.429-4.076-5.093-3.07-3.835-5.949-7.471-8.958-11.053 11.391-14.82 19.105-31.066 22.935-48.325 7.123-32.024 2.18-64.563-14.568-96.648Z" stroke="#E2BCAA"/><path d="M338.46 180.1c-33.835-64.363-85.922-74.527-85.922-74.527s8.22 8.929 11.874 13.301c2.234 2.669 4.544 5.438 6.724 8.184 18.821 23.779 30.703 45.379 37.48 68.069 6.279 21.094 6.863 40.109 1.789 58.134a77.695 77.695 0 0 1-9.779 21.892l-71.346-86.37 39.523-33.75-21.938-1.696c-11.628-.905-23.648-1.84-35.477-2.623-3.131-.207-5.826 1.534-7.576 2.869-12.15 9.205-23.886 18.256-33.773 25.88-5.373 4.135-10.7 8.3-15.896 12.342l-11.092 8.637 30.864 36.788 4.982-4.019c.86-.683 1.742-1.389 2.602-2.117l5.749-4.902c5.473-4.656 11.122-9.465 16.626-14.313a17057.632 17057.632 0 0 0 42.792 57.145l17.508 23.342c2.495 3.313 4.951 6.658 7.461 10.071l.138.184-.299.169c-13.011 7.034-25.668 10.348-38.793 9.972-15.39-.483-27.387-5.132-36.706-14.221-4.505-4.388-8.796-9.289-12.948-14.03a525.813 525.813 0 0 0-6.394-7.218c-.991-1.081-1.75-1.986-2.364-2.715-4.514-5.369-7.077-5.37-12.972-2.708-.852.391-1.881.852-3.155 1.389-3.362 1.419-6.141 2.216-8.95 1.534-4.206-1.02-6.908.222-8.443 1.434-1.535 1.212-3.378 3.636-3.324 8.062 0 .92-.092 1.488-2.441 3.375a54.546 54.546 0 0 1-18.713 10.094 51.571 51.571 0 0 0-25.445 17.251c-5.373 6.566-6.279 14.145-2.472 20.289 4.091 6.597 12.727 9.511 20.548 6.903 8.344-2.769 18.905-7.317 26.543-17.979 4.237-5.914 9.356-11.368 15.121-17.366a3.903 3.903 0 0 1 3.009-1.151 7.19 7.19 0 0 1 5.073 2.355c1.605 1.772 3.194 3.567 4.79 5.369 6.141 6.904 12.473 14.099 19.957 19.944 17.186 13.492 35.377 20.986 54.421 22.451 15.684 1.222 31.938-1.669 48.764-8.675 4.175-1.749 8.166-3.874 12.027-5.929l1.535-.829 12.719 16.798 33.543-26.309-3.262-4.035c-1.274-1.534-2.51-3.114-3.723-4.602-2.794-3.483-5.442-6.781-8.19-10.041a111.575 111.575 0 0 0 20.725-44.06c6.439-29.247 1.849-58.848-13.494-88.042Z" stroke="#DBAB99"/><path d="M334.63 191.107c-30.703-57.943-77.755-66.925-77.755-66.925s7.446 8.046 10.746 11.958c2.027 2.401 4.114 4.887 6.087 7.356 17.063 21.355 27.878 40.823 34.049 61.265 5.727 19.007 6.325 36.151 1.812 52.436a70.209 70.209 0 0 1-8.743 19.782l-64.66-77.664 35.531-30.544-19.788-1.45c-10.493-.767-21.338-1.58-32.008-2.247-2.832-.177-5.258 1.411-6.831 2.615a4885.493 4885.493 0 0 0-30.365 23.457 3404.135 3404.135 0 0 0-14.3 11.191l-9.978 7.824 27.977 33.029 4.483-3.643c.768-.622 1.535-1.258 2.303-1.918l5.173-4.441c4.913-4.219 9.979-8.576 14.937-12.963 12.9 17.156 25.834 34.287 38.801 51.392l15.873 20.994c2.257 2.984 4.483 5.991 6.763 9.059l.122.169-.268.154c-11.706 6.389-23.112 9.411-34.955 9.097-13.886-.384-24.724-4.533-33.16-12.703-4.075-3.942-7.967-8.345-11.728-12.61-1.919-2.171-3.838-4.349-5.787-6.481a73.198 73.198 0 0 1-2.142-2.447c-4.091-4.818-6.402-4.825-11.713-2.394-.768.353-1.696.767-2.84 1.258-3.024 1.289-5.557 2.025-8.067 1.435-3.8-.905-6.233.222-7.607 1.327-1.374 1.104-3.07 3.29-2.963 7.287 0 .828-.077 1.342-2.187 3.068a49.238 49.238 0 0 1-16.833 9.205 46.438 46.438 0 0 0-22.881 15.647c-4.813 5.945-5.619 12.787-2.165 18.31 3.707 5.937 11.514 8.537 18.552 6.136 7.522-2.531 17.025-6.673 23.879-16.315 3.838-5.369 8.444-10.278 13.579-15.717a3.56 3.56 0 0 1 2.709-1.043 6.488 6.488 0 0 1 4.606 2.109c1.45 1.588 2.893 3.207 4.336 4.818 5.55 6.228 11.299 12.671 18.046 17.933 15.551 12.112 31.985 18.808 49.171 20.059 14.169 1.022 28.817-1.644 43.943-8.001 3.761-1.587 7.353-3.52 10.83-5.369l1.397-.767 11.514 15.111 30.165-23.848-2.955-3.628c-1.159-1.419-2.302-2.8-3.377-4.165-2.533-3.13-4.928-6.09-7.422-9.028a100.694 100.694 0 0 0 18.559-39.803c5.719-26.402 1.482-53.087-12.465-79.367Z" stroke="#D49A88"/><path d="M330.801 202.114c-27.633-51.515-69.588-59.323-69.588-59.323s6.67 7.141 9.625 10.608c1.812 2.14 3.692 4.341 5.458 6.535 15.298 18.969 25.023 36.274 30.603 54.461 5.189 16.914 5.795 32.216 1.842 46.721a62.487 62.487 0 0 1-7.714 17.642l-57.952-68.942 31.54-27.384-17.654-1.204c-9.357-.652-19.028-1.32-28.539-1.872-2.525-.146-4.674 1.281-6.079 2.362-9.702 7.495-19.074 14.843-26.965 21.033-4.29 3.368-8.55 6.75-12.695 10.041l-8.843 7.049 25.085 29.325 3.976-3.268c.69-.552 1.389-1.12 2.08-1.718l4.605-3.981c4.36-3.782 8.866-7.671 13.256-11.621a15368.752 15368.752 0 0 0 34.802 45.655l14.238 18.639a877.054 877.054 0 0 1 6.072 8.047l.107.145-.238.138c-10.408 5.746-20.563 8.492-31.117 8.254-12.381-.276-22.06-3.927-29.613-11.168-3.646-3.506-7.131-7.418-10.508-11.199a571.844 571.844 0 0 0-5.189-5.753c-.806-.867-1.42-1.588-1.919-2.171-3.669-4.273-5.726-4.273-10.446-2.086-.683.314-1.535.698-2.526 1.142-2.694 1.159-4.943 1.826-7.184 1.304-3.385-.767-5.557.231-6.778 1.22-1.22.99-2.686 2.946-2.609 6.505 0 .767-.062 1.196-1.935 2.723a44.02 44.02 0 0 1-14.967 8.269 41.442 41.442 0 0 0-20.333 14.044c-4.253 5.308-4.951 11.414-1.85 16.323 3.339 5.277 10.301 7.563 16.572 5.416 6.685-2.302 15.144-6.022 21.215-14.643 3.362-4.787 7.438-9.205 12.036-14.068.313-.317.69-.565 1.105-.727.415-.162.86-.236 1.305-.217a5.766 5.766 0 0 1 4.091 1.857c1.305 1.411 2.595 2.845 3.892 4.28 4.974 5.53 10.124 11.245 16.165 15.908 13.908 10.739 28.584 16.63 43.905 17.643 12.634.859 25.683-1.581 39.146-7.318 3.347-1.434 6.54-3.168 9.633-4.848l1.243-.682 10.34 13.423 26.788-21.386-2.648-3.214a991.473 991.473 0 0 0-3.025-3.697c-2.302-2.776-4.421-5.415-6.662-8.015a89.72 89.72 0 0 0 16.38-35.561c4.912-23.518 1.013-47.281-11.529-70.646Z" stroke="#CD8977"/><path d="M326.978 213.122c-24.562-45.087-61.406-51.723-61.406-51.723s5.895 6.237 8.505 9.266c1.604 1.864 3.262 3.79 4.828 5.707 13.532 16.576 22.167 31.718 27.164 47.665 4.652 14.827 5.266 28.243 1.873 41.022a55.213 55.213 0 0 1-6.678 15.556l-51.289-60.26 27.556-24.216-15.505-.966c-8.221-.522-16.718-1.051-25.069-1.488-2.218-.115-4.099 1.15-5.327 2.109a5124.108 5124.108 0 0 0-23.564 18.617 2304.73 2304.73 0 0 0-11.099 8.882l-7.737 6.267 22.182 25.612 3.477-2.885c.599-.49 1.213-.997 1.812-1.534l4.007-3.52a821.649 821.649 0 0 0 11.59-10.271 10054.627 10054.627 0 0 0 30.803 39.887l12.595 16.292c1.797 2.301 3.57 4.648 5.373 7.034l.1.13-.207.123c-9.111 5.093-18.015 7.563-27.287 7.41-10.869-.177-19.389-3.337-26.059-9.65-3.224-3.068-6.302-6.474-9.28-9.78-1.535-1.68-3.07-3.367-4.606-5.024a58.859 58.859 0 0 1-1.696-1.895c-3.247-3.728-5.051-3.72-9.211-1.772-.598.276-1.32.622-2.21 1.013-2.357 1.035-4.337 1.626-6.302 1.189-2.978-.675-4.882.23-5.941 1.104-1.059.875-2.349 2.593-2.303 5.723 0 .652-.046 1.051-1.688 2.408a38.502 38.502 0 0 1-13.095 7.333 36.378 36.378 0 0 0-17.777 12.442c-3.708 4.687-4.283 10.048-1.535 14.344 2.955 4.602 9.08 6.589 14.584 4.663 5.864-2.04 13.271-5.369 18.552-12.971a114.162 114.162 0 0 1 10.492-12.41 2.773 2.773 0 0 1 2.111-.844 5.078 5.078 0 0 1 3.608 1.611 405.394 405.394 0 0 1 3.439 3.735c4.398 4.833 8.949 9.818 14.276 13.884 12.281 9.35 25.192 14.451 38.655 15.287 11.092.69 22.559-1.534 34.326-6.635 2.924-1.273 5.726-2.823 8.443-4.311l1.09-.606 9.157 11.736 23.404-18.923-2.341-2.815c-.922-1.097-1.804-2.171-2.679-3.229-2.004-2.424-3.907-4.725-5.888-7.003a78.725 78.725 0 0 0 14.193-31.312c4.267-20.71.706-41.558-10.416-62.008Z" stroke="#C67868"/><path d="M323.148 223.983c-21.454-38.659-53.262-44.121-53.262-44.121s5.12 5.331 7.392 7.924c1.389 1.595 2.832 3.245 4.191 4.886 11.774 14.175 19.312 27.161 23.733 40.861 4.099 12.733 4.72 24.285 1.888 35.284a47.253 47.253 0 0 1-5.642 13.447l-44.565-51.523 23.557-21.04-13.356-.767c-7.084-.391-14.399-.767-21.607-1.105-1.903-.084-3.515 1.013-4.567 1.849a3605.646 3605.646 0 0 0-20.172 16.2c-3.2 2.585-6.394 5.193-9.487 7.724l-6.624 5.369 19.281 22.038 2.971-2.508a35.492 35.492 0 0 0 1.535-1.32l3.431-3.068c3.262-2.907 6.624-5.906 9.909-8.928a12372.405 12372.405 0 0 0 26.804 34.149l10.984 13.891c1.535 1.987 3.07 3.981 4.674 6.022l.085.114-.184.1c-7.807 4.457-15.459 6.643-23.442 6.581-9.364-.084-16.725-2.745-22.513-8.138-2.801-2.608-5.473-5.53-8.067-8.353-1.32-1.442-2.64-2.884-3.984-4.296-.621-.652-1.09-1.189-1.473-1.618-2.817-3.199-4.376-3.176-7.922-1.473-.514.253-1.136.545-1.903.89-2.019.905-3.723 1.434-5.419 1.066-2.572-.56-4.199.23-5.112.997-.914.767-1.996 2.256-1.904 4.94 0 .56-.038.913-1.435 2.087a33.284 33.284 0 0 1-11.23 6.412 31.279 31.279 0 0 0-15.221 10.831c-3.162 4.065-3.623 8.691-1.228 12.372 2.579 3.958 7.868 5.608 12.588 3.912 5.035-1.794 11.391-4.709 15.889-11.298a98.137 98.137 0 0 1 8.95-10.739 2.401 2.401 0 0 1 1.811-.767 4.389 4.389 0 0 1 3.117 1.365c1.005 1.051 1.995 2.125 2.985 3.191 3.838 4.135 7.776 8.399 12.397 11.859 10.638 7.97 21.799 12.273 33.397 12.902 9.564.511 19.401-1.473 29.513-5.953 2.517-1.12 4.912-2.469 7.23-3.773l.937-.522 7.967 10.041 20.026-16.461-2.034-2.409a159.648 159.648 0 0 1-2.303-2.761 306.113 306.113 0 0 0-5.119-5.991 67.92 67.92 0 0 0 12.012-27.069c3.454-17.811.253-35.76-9.479-53.303Z" stroke="#C06859"/><path d="M319.31 234.814c-18.36-32.216-45.095-36.52-45.095-36.52s4.345 4.426 6.271 6.582a163.459 163.459 0 0 1 3.57 4.058c9.978 11.781 16.456 22.605 20.287 34.057 3.569 10.646 4.191 20.334 1.919 29.616a39.631 39.631 0 0 1-4.606 11.329l-37.864-42.809 19.565-17.873-11.214-.483c-5.941-.261-12.089-.529-18.13-.767a5.903 5.903 0 0 0-3.838 1.595 1782.265 1782.265 0 0 0-16.771 13.807c-2.664 2.202-5.32 4.419-7.899 6.566l-5.503 4.603 16.38 18.202 2.471-2.14c.43-.361.868-.767 1.29-1.12l2.848-2.6c2.709-2.47 5.503-5.017 8.228-7.587a6311.912 6311.912 0 0 0 22.812 28.381l9.326 11.598a606.045 606.045 0 0 1 3.976 5.009l.077.092-.154.092c-6.509 3.835-12.902 5.715-19.603 5.73-7.86 0-14.055-2.14-18.967-6.612-2.372-2.163-4.605-4.602-6.839-6.903-1.121-1.197-2.241-2.394-3.385-3.567-.53-.537-.929-.982-1.251-1.342-2.395-2.654-3.7-2.624-6.663-1.159-.43.207-.944.468-1.589.767-1.688.767-3.108 1.243-4.536.944a4.784 4.784 0 0 0-2.244-.073 4.788 4.788 0 0 0-2.031.955 4.873 4.873 0 0 0-1.535 4.173c0 .467 0 .767-1.19 1.756a27.9 27.9 0 0 1-9.357 5.485 26.254 26.254 0 0 0-12.672 9.204c-2.618 3.437-2.956 7.318-.914 10.386a9.014 9.014 0 0 0 10.6 3.168c4.207-1.534 9.511-4.058 13.218-9.626a81.596 81.596 0 0 1 7.415-9.121 2.016 2.016 0 0 1 1.535-.636 3.651 3.651 0 0 1 2.625 1.166c.852.874 1.696 1.764 2.533 2.654 3.247 3.428 6.609 6.972 10.516 9.833 8.995 6.582 18.421 10.095 28.131 10.509 8.029.345 16.288-1.411 24.716-5.27 2.095-.959 4.099-2.117 6.025-3.229l.768-.453 6.777 8.353 16.649-13.998-1.735-1.994-1.98-2.302c-1.481-1.725-2.886-3.359-4.352-4.978a56.875 56.875 0 0 0 9.825-22.82c2.748-15.049-.108-30.06-8.436-44.688Z" stroke="#B9574C"/><path d="M315.472 245.668c-15.267-25.811-36.927-28.918-36.927-28.918s3.569 3.513 5.158 5.231c.975 1.051 1.98 2.148 2.932 3.23 8.244 9.396 13.601 18.056 16.848 27.261 3.024 8.56 3.661 16.376 1.942 23.909a32.116 32.116 0 0 1-3.569 9.204l-31.179-34.095 15.582-14.712-9.073-.238c-4.805-.138-9.779-.269-14.661-.353a4.877 4.877 0 0 0-3.07 1.342c-4.805 4.05-9.456 8.016-13.371 11.36-2.118 1.811-4.237 3.636-6.286 5.37l-4.391 3.789 13.479 14.49 1.972-1.757c.338-.299.691-.606 1.029-.928l2.264-2.14a492.747 492.747 0 0 0 6.548-6.236 6618.282 6618.282 0 0 0 18.813 22.651l7.675 9.251c1.098 1.319 2.18 2.646 3.286 3.996l.061.077-.123.076c-5.212 3.161-10.354 4.787-15.773 4.894-6.348.123-11.383-1.534-15.413-5.101-1.942-1.71-3.838-3.643-5.619-5.507-.928-.951-1.85-1.91-2.786-2.838-.43-.43-.768-.767-1.029-1.074-1.972-2.11-3.024-2.071-5.373-.844-.337.176-.767.391-1.266.637-1.351.652-2.495 1.043-3.654.821a3.88 3.88 0 0 0-3.446.767 3.922 3.922 0 0 0-1.198 3.39c0 .383 0 .613-.936 1.442a22.641 22.641 0 0 1-7.491 4.556 21.248 21.248 0 0 0-10.125 7.625c-2.064 2.815-2.302 5.96-.598 8.437a7.262 7.262 0 0 0 3.885 2.69c1.559.44 3.22.346 4.719-.266 3.385-1.319 7.637-3.405 10.562-7.954a67.373 67.373 0 0 1 5.872-7.471 1.606 1.606 0 0 1 1.213-.53 2.99 2.99 0 0 1 2.141.86c.699.698 1.389 1.403 2.08 2.117a64.351 64.351 0 0 0 8.628 7.801c7.353 5.208 15.006 7.916 22.881 8.123 6.486.176 13.133-1.358 19.895-4.603 1.689-.767 3.286-1.764 4.836-2.692l.622-.368 5.588 6.658 13.271-11.506-1.428-1.588c-.56-.621-1.097-1.235-1.627-1.833-1.228-1.373-2.387-2.677-3.584-3.966a46.01 46.01 0 0 0 7.629-18.57c2.019-12.189-.491-24.285-7.415-35.967Z" stroke="#B3473F"/><path d="M311.626 256.46c-12.173-19.383-28.768-21.316-28.768-21.316s2.794 2.608 4.045 3.889c.768.767 1.535 1.595 2.303 2.4 6.486 7.004 10.746 13.508 13.409 20.465 2.479 6.467 3.124 12.419 1.973 18.202a24.621 24.621 0 0 1-2.549 7.103l-24.477-25.381 11.59-11.506h-18.107a3.665 3.665 0 0 0-2.303 1.081 2091.019 2091.019 0 0 0-9.978 8.937c-1.581 1.426-3.163 2.868-4.69 4.257l-3.278 2.984 10.547 10.777 1.466-1.381c.253-.23.514-.476.767-.721l1.681-1.68c1.605-1.595 3.263-3.237 4.875-4.894 4.927 5.625 9.865 11.25 14.814 16.875l6.056 6.904 2.587 2.976.046.054-.093.061a23.465 23.465 0 0 1-11.935 4.058c-4.836.222-8.72-.951-11.859-3.575-1.535-1.273-2.986-2.707-4.406-4.096-.722-.705-1.443-1.411-2.18-2.109a14.012 14.012 0 0 1-.768-.767c-1.535-1.534-2.348-1.534-4.137-.537-.261.146-.568.314-.959.514a4.525 4.525 0 0 1-2.771.706 2.965 2.965 0 0 0-2.61.652 3.015 3.015 0 0 0-.852 2.615c0 .284 0 .468-.683 1.112a17.153 17.153 0 0 1-5.619 3.629 16.185 16.185 0 0 0-7.568 6.029c-1.535 2.186-1.635 4.602-.292 6.427a5.566 5.566 0 0 0 6.617 1.673c2.556-1.074 5.757-2.754 7.898-6.29a51.456 51.456 0 0 1 4.329-5.814 1.222 1.222 0 0 1 .914-.43 2.304 2.304 0 0 1 1.65.614c.545.521 1.09 1.043 1.627 1.572a50.394 50.394 0 0 0 6.739 5.784c5.727 3.82 11.611 5.73 17.655 5.73a33.071 33.071 0 0 0 15.098-3.905c1.266-.644 2.464-1.411 3.63-2.147l.469-.3 4.398 4.971 9.894-9.074-1.121-1.182-1.282-1.365a150.964 150.964 0 0 0-2.817-2.953 35.087 35.087 0 0 0 5.45-14.329c1.251-9.327-.906-18.509-6.425-27.299Z" stroke="#AD3734"/></g><defs><clipPath id="a"><path fill="#fff" transform="translate(0 .786)" d="M0 0h683v382H0z"/></clipPath></defs></svg>