<svg width="338" height="156" viewBox="0 0 338 156" fill="none" xmlns="http://www.w3.org/2000/svg">
<g clip-path="url(#clip0_191:851)">
<path d="M283.781 1.91521C297.907 1.91521 311.454 7.51136 321.443 17.4725C331.431 27.4336 337.043 40.9437 337.043 55.0308C337.043 69.1179 331.431 82.628 321.443 92.5891C311.454 102.55 297.907 108.146 283.781 108.146C282.271 108.146 280.78 108.032 279.288 107.918C277.809 120.876 271.6 132.838 261.844 141.523C252.087 150.208 239.468 155.008 226.39 155.009C213.312 155.008 200.692 150.208 190.936 141.523C181.18 132.838 174.971 120.876 173.492 107.918C172 108.032 170.509 108.146 168.999 108.146C167.488 108.146 165.978 108.032 164.487 107.918C163.012 120.874 156.807 132.836 147.054 141.521C137.301 150.206 124.683 155.008 111.608 155.009C98.5299 155.008 85.9101 150.208 76.154 141.523C66.398 132.838 60.1883 120.876 58.7092 107.918C57.218 108.032 55.7266 108.146 54.1972 108.146C40.0746 108.141 26.532 102.543 16.5477 92.5826C6.56328 82.6221 0.954833 69.1146 0.954834 55.0308C0.952323 48.0565 2.32736 41.15 5.00193 34.7058C7.6765 28.2617 11.5978 22.4061 16.5421 17.4736C21.4864 12.5411 27.357 8.62843 33.818 5.95889C40.2789 3.28934 47.2037 1.91521 54.1972 1.91521C67.2737 1.91999 79.8914 6.72188 89.6465 15.4061C99.4017 24.0903 105.612 36.0497 107.096 49.0061C108.587 48.8917 110.078 48.7964 111.608 48.7964C113.137 48.7964 114.609 48.8917 116.1 49.0061C117.584 36.0497 123.794 24.0903 133.549 15.4061C143.305 6.72188 155.922 1.91999 168.999 1.91521C182.075 1.91999 194.693 6.72188 204.448 15.4061C214.203 24.0903 220.414 36.0497 221.897 49.0061C223.369 48.8917 224.88 48.7964 226.39 48.7964C227.9 48.7964 229.41 48.8917 230.882 49.0061C232.366 36.0497 238.577 24.0903 248.332 15.4061C258.087 6.72188 270.705 1.91999 283.781 1.91521ZM283.781 97.6415C295.11 97.6314 305.972 93.1388 313.983 85.1499C321.994 77.1611 326.499 66.3288 326.509 55.0308C326.499 43.7328 321.994 32.9005 313.983 24.9117C305.972 16.9228 295.11 12.4302 283.781 12.4202C273.166 12.436 262.937 16.3862 255.079 23.5034C247.222 30.6206 242.298 40.3964 241.264 50.9317C251.599 53.9203 260.785 59.9612 267.61 68.2584C274.435 76.5557 278.58 86.72 279.499 97.4127C280.947 97.566 282.402 97.6423 283.858 97.6415H283.781ZM169.152 97.6415C170.608 97.6423 172.063 97.566 173.511 97.4127C174.429 86.72 178.574 76.5557 185.399 68.2584C192.224 59.9612 201.41 53.9203 211.746 50.9317C210.712 40.3964 205.788 30.6206 197.93 23.5034C190.073 16.3862 179.843 12.436 169.228 12.4202C158.612 12.4317 148.38 16.3805 140.522 23.4985C132.663 30.6165 127.74 40.3948 126.71 50.9317C137.031 53.9318 146.199 59.9784 153.007 68.2752C159.815 76.572 163.944 86.7303 164.85 97.4127C166.305 97.5655 167.766 97.6418 169.228 97.6415H169.152ZM54.4268 97.6415C55.8892 97.6423 57.3506 97.5659 58.8049 97.4127C59.7208 86.7191 63.8647 76.5536 70.6904 68.2559C77.5161 59.9582 86.7031 53.9179 97.0401 50.9317C96.0017 40.3948 91.0736 30.6188 83.213 23.502C75.3524 16.3852 65.1202 12.4356 54.5034 12.4202C43.1743 12.4302 32.312 16.9228 24.3011 24.9117C16.2903 32.9005 11.7854 43.7328 11.7753 55.0308C11.7904 66.3272 16.297 77.1566 24.3067 85.1444C32.3165 93.1321 43.1759 97.6263 54.5034 97.6415H54.4268ZM226.696 144.523C237.313 144.507 247.546 140.554 255.404 133.432C263.262 126.311 268.184 116.531 269.213 105.992C258.876 103.006 249.689 96.9658 242.864 88.6681C236.038 80.3704 231.894 70.2046 230.978 59.5111C229.53 59.3578 228.075 59.2814 226.619 59.2823C225.163 59.2814 223.709 59.3578 222.261 59.5111C221.345 70.2046 217.2 80.3704 210.375 88.6681C203.549 96.9658 194.363 103.006 184.025 105.992C185.055 116.531 189.977 126.311 197.835 133.432C205.693 140.554 215.925 144.507 226.543 144.523H226.696ZM111.837 144.523C122.454 144.502 132.684 140.548 140.541 133.428C148.398 126.307 153.321 116.529 154.355 105.992C144.016 103.008 134.828 96.9688 128.002 88.6707C121.176 80.3725 117.033 70.2055 116.12 59.5111C114.672 59.3578 113.217 59.2814 111.761 59.2823C110.298 59.281 108.837 59.3573 107.383 59.5111C106.469 70.2055 102.326 80.3725 95.4999 88.6707C88.6738 96.9688 79.4857 103.008 69.1473 105.992C70.1813 116.532 75.1073 126.313 82.9684 133.434C90.8295 140.555 101.064 144.507 111.684 144.523H111.837ZM268.544 94.7626C267.294 87.4831 264.17 80.6521 259.479 74.9375C254.787 69.223 248.689 64.8206 241.78 62.1612C243.03 69.4406 246.154 76.2719 250.845 81.9865C255.537 87.701 261.635 92.1032 268.544 94.7626ZM184.427 94.7626C191.336 92.1032 197.434 87.701 202.126 81.9865C206.817 76.2719 209.941 69.4406 211.192 62.1612C204.283 64.8206 198.184 69.223 193.492 74.9375C188.801 80.6521 185.677 87.4831 184.427 94.7626ZM153.839 94.7626C152.585 87.4845 149.459 80.655 144.768 74.941C140.077 69.227 133.981 64.8238 127.074 62.1612C128.324 69.4406 131.448 76.2719 136.139 81.9865C140.831 87.701 146.93 92.1032 153.839 94.7626ZM69.721 94.7626C76.6259 92.0967 82.7203 87.6927 87.4109 81.9792C92.1014 76.2658 95.2281 69.4379 96.4857 62.1612C89.5807 64.827 83.4858 69.2313 78.7953 74.9448C74.1048 80.6582 70.9785 87.4858 69.721 94.7626ZM283.991 0.961955C270.834 0.950376 258.124 5.71875 248.237 14.3753C238.349 23.0319 231.963 34.9839 230.271 47.9959C229.124 47.9005 227.862 47.8432 226.6 47.8432C225.338 47.8432 224.077 47.8433 222.93 47.9959C221.238 34.9839 214.851 23.0319 204.964 14.3753C195.077 5.71875 182.366 0.950376 169.209 0.961955C156.049 0.945738 143.333 5.71204 133.442 14.369C123.551 23.026 117.161 34.9806 115.469 47.9959C114.341 47.9005 113.08 47.8432 111.818 47.8432C110.556 47.8432 109.275 47.8433 108.147 47.9959C106.455 34.9806 100.066 23.026 90.1744 14.369C80.2831 5.71204 67.568 0.945738 54.4077 0.961955C40.0363 0.98214 26.2595 6.68571 16.0991 16.8218C5.93877 26.9578 0.224157 40.6988 0.208984 55.0308C0.224157 69.3628 5.93877 83.1038 16.0991 93.2398C26.2595 103.376 40.0363 109.079 54.4077 109.1C55.6886 109.1 56.9311 109.1 58.0781 108.928C59.7702 121.943 66.1596 133.898 76.0509 142.555C85.9421 151.212 98.6578 155.978 111.818 155.962C124.975 155.974 137.685 151.205 147.573 142.549C157.46 133.892 163.847 121.94 165.538 108.928C166.685 108.928 167.948 109.1 169.209 109.1C170.471 109.1 171.733 109.1 172.861 108.928C174.557 121.942 180.947 133.894 190.838 142.55C200.728 151.206 213.441 155.974 226.6 155.962C239.759 155.974 252.473 151.206 262.363 142.55C272.253 133.894 278.644 121.942 280.34 108.928C281.468 108.928 282.729 109.1 283.991 109.1C298.364 109.079 312.143 103.377 322.307 93.241C332.47 83.1055 338.189 69.3646 338.209 55.0308C338.194 40.6955 332.477 26.9516 322.312 16.815C312.148 6.67841 298.366 0.977096 283.991 0.961955ZM242.506 50.2454C243.638 40.077 248.502 30.6857 256.161 23.8786C263.82 17.0715 273.732 13.3297 283.991 13.3734C295.067 13.3835 305.686 17.7756 313.518 25.5857C321.349 33.3958 325.753 43.9857 325.763 55.0308C325.753 66.0759 321.349 76.6659 313.518 84.476C305.686 92.2861 295.067 96.6781 283.991 96.6882C282.844 96.6882 281.659 96.6883 280.512 96.5358C279.417 85.9567 275.232 75.9308 268.476 67.702C261.72 59.4731 252.69 53.4033 242.506 50.2454ZM127.8 50.2454C128.933 40.077 133.796 30.6857 141.455 23.8786C149.114 17.0715 159.026 13.3297 169.285 13.3734C179.543 13.3339 189.454 17.0772 197.111 23.8835C204.769 30.6898 209.634 40.0787 210.771 50.2454C200.587 53.4033 191.557 59.4731 184.801 67.702C178.045 75.9308 173.86 85.9567 172.765 96.5358C171.618 96.5358 170.432 96.6882 169.285 96.6882C168.138 96.6882 166.953 96.6883 165.787 96.5358C164.698 85.9574 160.518 75.931 153.764 67.7015C147.011 59.4721 137.983 53.4021 127.8 50.2454ZM54.4842 96.6882C43.4087 96.6781 32.7894 92.2861 24.9578 84.476C17.1263 76.6659 12.7221 66.0759 12.712 55.0308C12.7221 43.9857 17.1263 33.3958 24.9578 25.5857C32.7894 17.7756 43.4087 13.3835 54.4842 13.3734C64.7441 13.3335 74.6568 17.0759 82.3178 23.8818C89.9788 30.6878 94.8476 40.0771 95.9886 50.2454C85.8025 53.3989 76.77 59.4676 70.0131 67.6973C63.2563 75.927 59.0726 85.9551 57.9825 96.5358C56.8163 96.5358 55.6504 96.6882 54.4842 96.6882ZM223.197 60.4643C224.345 60.369 225.51 60.3119 226.677 60.3119C227.843 60.3119 229.009 60.3118 230.156 60.4643C231.249 71.0442 235.433 81.0712 242.19 89.3004C248.946 97.5297 257.977 103.599 268.162 106.755C267.03 116.925 262.167 126.319 254.509 133.129C246.85 139.939 236.937 143.685 226.677 143.646C216.416 143.685 206.503 139.939 198.845 133.129C191.187 126.319 186.324 116.925 185.191 106.755C195.376 103.599 204.408 97.5297 211.164 89.3004C217.921 81.0712 222.105 71.0442 223.197 60.4643ZM108.396 60.4643C109.562 60.369 110.728 60.3119 111.894 60.3119C113.06 60.3119 114.207 60.3118 115.374 60.4643C116.464 71.045 120.647 81.0733 127.404 89.303C134.161 97.5327 143.194 103.601 153.38 106.755C152.24 116.922 147.374 126.31 139.717 133.119C132.061 139.928 122.153 143.676 111.894 143.646C101.632 143.681 91.7197 139.934 84.0592 133.125C76.3986 126.316 71.5304 116.925 70.3898 106.755C80.5784 103.606 89.6137 97.5382 96.3713 89.3077C103.129 81.0771 107.311 71.0466 108.396 60.4643ZM267.493 93.2948C261.406 90.6363 256.038 86.5773 251.828 81.4507C247.617 76.3241 244.685 70.2755 243.271 63.8007C249.358 66.4592 254.726 70.5182 258.936 75.6448C263.146 80.7714 266.079 86.82 267.493 93.2948ZM152.691 93.2948C146.605 90.6363 141.236 86.5773 137.026 81.4507C132.816 76.3241 129.884 70.2755 128.469 63.8007C134.563 66.4488 139.937 70.5046 144.149 75.6329C148.361 80.7613 151.289 86.8152 152.691 93.2948ZM71.0782 93.2948C72.4924 86.82 75.4247 80.7714 79.635 75.6448C83.8452 70.5182 89.2135 66.4592 95.3001 63.8007C93.886 70.2755 90.9537 76.3241 86.7434 81.4507C82.5331 86.5773 77.1649 90.6363 71.0782 93.2948ZM185.784 93.2948C187.198 86.82 190.131 80.7714 194.341 75.6448C198.551 70.5182 203.919 66.4592 210.006 63.8007C208.592 70.2755 205.66 76.3241 201.449 81.4507C197.239 86.5773 191.871 90.6363 185.784 93.2948Z" fill="#AC3734"/>
</g>
<defs>
<clipPath id="clip0_191:851">
<rect width="338" height="155" fill="white" transform="translate(0 0.961914)"/>
</clipPath>
</defs>
</svg>
