<svg width="111" height="114" viewBox="0 0 111 114" fill="none" xmlns="http://www.w3.org/2000/svg">
<path d="M91.2205 48.3683L91.462 46.0064C97.2729 44.7468 102.822 42.4783 107.862 39.3024C107.862 39.3024 111.484 33.7323 108.323 27.4321C103.665 33.1933 97.7853 37.8297 91.1162 41.0005L91.0723 40.7959C90.966 39.9693 90.8139 39.1494 90.6167 38.3399C91.1107 38.0412 100.65 32.2112 104.47 25.0647C104.47 25.0647 105.782 17.6084 100.079 13.2055C97.9933 21.32 93.114 28.1843 88.553 33.1681C88.0791 32.3452 87.5098 31.5821 86.8571 30.8947C86.0283 34.302 83.778 38.0855 79.8537 41.1831L79.7769 41.1554C75.8937 39.8692 71.9146 38.8981 67.8777 38.2514C68.323 37.1834 68.9426 36.1981 69.7109 35.3364C69.7109 35.3364 74.5408 34.7003 74.6506 36.6639C74.8839 36.4404 75.0522 36.1568 75.1373 35.8439C75.2225 35.531 75.2212 35.2006 75.1336 34.8884C77.1533 36.1053 80.4794 36.5478 81.363 33.3119C79.8976 35.967 75.8745 32.2665 72.3948 32.0176L72.7021 31.7244L73.0754 31.3704H77.5924L78.6572 32.5984L82.7736 28.9366L80.5178 26.3258H76.2258L78.4212 24.1686H65.084C63.0423 24.1686 58.5966 24.1188 58.9369 21.6684C57.4385 24.6332 59.2991 26.6135 62.3398 26.9343C61.5329 27.9963 58.4978 29.263 57.8282 27.8138C57.691 29.8438 59.7546 30.0982 59.7546 30.0982C58.1609 31.988 56.7477 34.0252 55.534 36.1827C54.3224 34.0238 52.9091 31.9864 51.3133 30.0982C51.3133 30.0982 53.3825 29.8438 53.2452 27.8138C52.5537 29.263 49.535 27.9963 48.7282 26.9343C51.7743 26.6135 53.6349 24.6332 52.1365 21.6684C52.4713 24.1188 48.0257 24.1686 45.9839 24.1686H32.6303L34.8257 26.3258H30.5062L28.2559 28.9366L32.3668 32.5984L33.4316 31.3704H37.9487L38.3274 31.7244L38.6293 32.0176C35.1331 32.2665 31.1264 35.967 29.6665 33.3119C30.5501 36.5422 33.8707 36.0776 35.896 34.8884C35.8065 35.2 35.8037 35.5304 35.8879 35.8436C35.9721 36.1567 36.1401 36.4405 36.3735 36.6639C36.5052 34.7003 41.3132 35.3364 41.3132 35.3364C42.0827 36.1992 42.7024 37.1866 43.1463 38.2569C39.1263 38.894 35.1636 39.8559 31.2966 41.1333L31.2252 41.1609C27.2954 38.091 25.0451 34.2799 24.2163 30.8726C23.5636 31.56 22.9943 32.3231 22.5204 33.146C17.9814 28.1678 13.1076 21.2978 10.9945 13.1833C5.26991 17.6084 6.60363 25.0425 6.60363 25.0425C10.4456 32.2001 19.9627 38.0302 20.4567 38.3178C20.2595 39.1272 20.1075 39.9471 20.0011 40.7737L19.9573 40.9784C13.2893 37.8056 7.41018 33.1696 2.75066 27.41C-0.40525 33.7102 3.21721 39.2803 3.21721 39.2803C8.25452 42.4568 13.8021 44.7253 19.6115 45.9843L19.8584 48.3461C8.43129 47.1237 1.05472 42.8148 1.05472 42.8148C0.856021 44.6646 1.14814 46.5344 1.90125 48.2331C2.65437 49.9318 3.84148 51.3986 5.34127 52.4836C5.34127 52.4836 13.4533 54.0545 20.9726 52.6551L21.7849 54.58C16.2303 56.0006 10.4896 56.5381 4.77044 56.173C6.00536 62.7166 11.6805 63.3638 11.6805 63.3638C15.9656 62.1009 20.1138 60.4072 24.0627 58.3081L25.2043 59.7241C21.1396 62.487 16.7981 64.8119 12.2513 66.6605C14.5291 70.8754 19.7596 70.3941 19.7596 70.3941C22.7429 68.008 25.499 65.347 27.9925 62.4456L29.3262 63.3969C26.8322 66.897 24.0527 70.1811 21.0165 73.2151C24.4579 75.5991 28.7938 74.4541 28.7938 74.4541C30.2882 71.518 31.5935 68.4879 32.7016 65.3827C33.652 65.8526 34.6374 66.2465 35.649 66.5609V73.9618C32.2296 74.515 30.6489 76.0582 30.1111 77.9887L30.0671 78.1767L30.0122 78.409C29.9848 78.5639 29.9574 78.7299 29.9354 78.8958V79.0341C29.6171 82.1206 30.9288 86.6729 29.1176 86.9163C29.5555 87.1603 30.0681 87.2303 30.5547 87.1126C31.0412 86.9948 31.4664 86.6979 31.7466 86.2802C32.2115 87.1844 32.7264 88.0615 33.2889 88.9075C31.7639 89.6122 30.1184 90.0141 28.4425 90.0913C26.2471 90.0913 24.359 89.4386 22.4051 87.0214C21.1757 85.5168 19.8255 84.9914 18.5631 86.9882L13.4478 81.8772C13.4652 81.5289 13.3471 81.1876 13.1185 80.9258C16.1153 77.7287 13.0527 73.2483 10.4346 73.1321C9.50157 73.0879 11.3841 76.2573 9.70463 76.7718C8.9088 77.0151 8.22823 75.5161 9.40827 74.8081C8.88812 74.7272 8.3559 74.8144 7.88793 75.057C7.94972 74.8594 7.94843 74.6472 7.88424 74.4504C7.82005 74.2535 7.6962 74.0819 7.53012 73.9597C7.36405 73.8376 7.16416 73.771 6.95855 73.7694C6.75295 73.7678 6.55201 73.8312 6.38407 73.9508L6.3347 73.8954C6.2206 73.7636 6.08116 73.6565 5.92483 73.5805C5.7685 73.5045 5.59851 73.4613 5.42512 73.4533C5.25173 73.4454 5.07855 73.4729 4.91603 73.5343C4.75351 73.5957 4.60501 73.6897 4.47953 73.8105C4.35405 73.9314 4.25418 74.0766 4.18594 74.2374C4.11771 74.3983 4.08253 74.5714 4.08253 74.7463C4.08253 74.9212 4.11771 75.0944 4.18594 75.2552C4.25418 75.416 4.35408 75.5612 4.47957 75.6821L4.52345 75.7208C4.3685 75.8796 4.27052 76.0859 4.24497 76.3071C4.21942 76.5283 4.26777 76.7518 4.38238 76.9421C4.497 77.1325 4.6713 77.279 4.87777 77.3583C5.08424 77.4377 5.31107 77.4454 5.52237 77.3802C5.20487 77.8887 5.08017 78.4956 5.17113 79.0894C5.87366 77.8946 7.36653 78.586 7.10857 79.3991C6.59264 81.0862 3.45319 79.1668 3.4971 80.1072C3.59589 82.7456 8.03063 85.8543 11.2195 82.8729C11.4802 83.1027 11.8173 83.2252 12.1635 83.2158L16.9111 88.2217C16.1427 88.725 15.6432 90.2295 17.0538 91.3524C16.3403 93.8028 18.2613 96.1702 24.6829 96.3638C27.2296 99.0465 29.1945 101.115 29.3372 101.259C29.9958 101.912 30.5117 102.083 30.7971 102.033C31.0497 101.988 31.2819 101.864 31.4612 101.679C31.6545 101.498 31.7868 101.26 31.8399 100.999C31.8307 100.711 31.7591 100.429 31.6302 100.172C31.5012 99.9148 31.3181 99.6893 31.0935 99.5111L26.8948 95.3184C27.9101 94.4223 32.3833 90.6721 36.1704 90.3402C35.6215 87.8677 35.6874 85.9427 36.1155 84.5931C36.1759 84.8309 36.2637 85.0301 36.3405 85.2513C37.548 88.8965 40.4569 89.9308 44.3922 90.0138L34.7489 99.6605C34.6014 101.204 34.6531 102.76 34.9025 104.29C36.3821 104.64 37.9007 104.792 39.4196 104.744L47.7348 91.4686C47.7348 91.4686 49.3813 91.6234 48.8928 92.4255L41.8016 106.348C42.1858 108.223 43.8159 110.413 43.8159 110.413C45.3359 110.075 46.8194 109.588 48.2452 108.959L53.1025 92.8016L54.332 93.6424L50.9346 110.104C52.2039 111.576 53.7851 112.742 55.5614 113.517C57.3388 112.744 58.9204 111.578 60.1883 110.104L56.7854 93.6424L58.0203 92.8016L62.8776 108.959C64.3051 109.589 65.7905 110.076 67.3124 110.413C67.3124 110.413 68.9589 108.201 69.3212 106.348L62.2245 92.4255C61.758 91.6234 63.3881 91.4686 63.3881 91.4686L71.7032 104.744C73.2203 104.792 74.7371 104.639 76.2148 104.29C76.4673 102.761 76.5208 101.204 76.374 99.6605L66.7306 89.9862C70.9513 89.8977 74.0194 88.7637 75.0512 84.4548C75.5123 85.81 75.6001 87.7736 75.0512 90.3125C77.0999 90.557 79.0663 91.2689 80.8009 92.3942C82.5357 93.5194 83.993 95.0284 85.0623 96.8063C86.7748 99.6937 90.9625 101.63 92.5487 98.604C94.2611 99.4227 98.1305 97.553 97.3512 94.6823C97.7909 93.8443 98.0537 92.9236 98.1232 91.9783C98.1927 91.0329 98.0672 90.0833 97.7548 89.1891C97.4424 88.295 96.9498 87.4757 96.3079 86.7828C95.666 86.0899 94.8888 85.5383 94.0251 85.1628L92.9603 87.1265L91.2589 90.2572L89.5575 87.1265L88.4872 85.1628C87.337 85.6728 86.3479 86.4914 85.6278 87.5293C84.9077 88.5671 84.4843 89.7844 84.4037 91.0482C82.3166 90.1908 80.1794 89.463 78.0041 88.8688C78.534 88.0478 79.016 87.1964 79.4475 86.3189C79.7288 86.737 80.155 87.0341 80.6424 87.1518C81.1298 87.2695 81.6433 87.1993 82.082 86.955C80.2708 86.7116 81.5771 82.1593 81.2588 79.0728V78.9345C81.2588 78.7686 81.2149 78.6026 81.1874 78.4478L81.127 78.2154L81.0886 78.0274C80.5398 76.0859 78.9536 74.5094 75.4903 73.9895V66.5775C76.5006 66.2645 77.4843 65.8705 78.4322 65.3993C79.5424 68.5028 80.8458 71.5326 82.3345 74.4707C82.3345 74.4707 86.6814 75.6157 90.1228 73.2317C87.0723 70.2027 84.2781 66.9222 81.7692 63.4246L83.1084 62.4732C85.6013 65.3752 88.3575 68.0362 91.3412 70.4218C91.3412 70.4218 96.5718 70.903 98.8441 66.6881C94.2988 64.8401 89.959 62.5152 85.8966 59.7518L87.0382 58.3358C90.9882 60.4365 95.1385 62.1303 99.4258 63.3914C99.4258 63.3914 105.095 62.7332 106.336 56.2007C100.617 56.5653 94.8761 56.0278 89.3214 54.6076L90.1338 52.6827C97.6585 54.0822 105.771 52.5113 105.771 52.5113C107.27 51.4263 108.457 49.9595 109.211 48.2607C109.964 46.562 110.256 44.6922 110.057 42.8425C110.057 42.8425 102.648 47.1458 91.2205 48.3683ZM74.7548 26.6301L73.4101 27.952L69.0193 26.6301H74.7548ZM37.6413 27.952L36.2966 26.6301H42.0322L37.6413 27.952ZM6.19199 76.6667C6.23011 76.5326 6.24004 76.3921 6.22113 76.254C6.20223 76.1159 6.15491 75.9832 6.08221 75.8646L6.25235 75.7319L6.3347 75.6323C6.53837 75.7683 6.78404 75.8253 7.02622 75.7927C6.91972 75.954 6.8734 76.1481 6.89551 76.3405C6.91762 76.5329 7.00674 76.7112 7.14699 76.8437C7.03004 76.7113 6.87261 76.622 6.69964 76.5899C6.52666 76.5579 6.34802 76.5849 6.19199 76.6667ZM73.7011 83.3928C73.5506 84.4233 73.1758 85.4074 72.6033 86.2746L72.296 86.6729C72.1478 86.8333 71.9886 86.9882 71.8294 87.132C70.4573 88.288 68.4595 88.6144 65.9238 88.6144H62.444C61.6351 88.6135 60.828 88.6932 60.0346 88.8522C58.486 89.1227 57.0612 89.8774 55.9621 91.0095L55.4132 91.5626L54.8644 91.0095C53.6306 89.7487 52.0053 88.9522 50.2595 88.7527C49.6399 88.66 49.0143 88.6138 48.3879 88.6144H44.8972C41.2692 88.6144 38.7336 87.934 37.5865 85.0964C37.5206 84.9305 37.4712 84.7369 37.4108 84.5433V51.6428C38.9805 51.2501 40.435 50.9293 41.8346 50.6693C44.4529 50.1871 47.0948 49.8455 49.749 49.646C51.6426 49.5022 53.591 49.4303 55.4681 49.4303C61.5722 49.4242 67.6544 50.1671 73.5803 51.6428H73.6571L73.7011 83.3928ZM81.9887 52.8874C79.7822 52.9836 77.5831 53.2089 75.4025 53.5622V50.7633L75.2708 50.7301C74.9634 50.6472 74.6506 50.5808 74.3432 50.4978L74.0413 50.4259H73.9316C67.9016 48.9224 61.7128 48.1627 55.501 48.1636C53.5581 48.1636 51.6206 48.241 49.6832 48.3849C46.9847 48.5873 44.2989 48.9344 41.637 49.4247C40.0508 49.7179 38.4811 50.0719 36.9168 50.4646L36.335 50.614L35.7478 50.7578H35.6764H35.6215V53.4018V53.5567C33.4409 53.2036 31.2418 52.9783 29.0353 52.8818C30.0614 49.7816 30.0614 46.4294 29.0353 43.3292V43.2794C29.908 42.9475 30.7916 42.6489 31.6753 42.3557C38.045 40.2453 44.6661 39.0027 51.3627 38.6608C51.7579 38.6608 52.153 38.6054 52.5427 38.5889H52.7568C53.6843 38.5557 54.6119 38.5335 55.534 38.5335H55.8578C56.7469 38.5335 57.6361 38.5335 58.5252 38.5833C58.8381 38.5833 59.1564 38.6276 59.4748 38.6386C60.1498 38.6773 60.8304 38.705 61.511 38.7603H61.6647C62.6032 38.8322 63.5472 38.9263 64.4858 39.0369C65.4243 39.1475 66.4617 39.2858 67.4496 39.4462C71.4987 40.0802 75.4895 41.0477 79.3817 42.3391C79.958 42.5327 80.5288 42.7374 81.0996 42.942C81.407 43.0471 81.7143 43.1467 82.0162 43.2628C82.0162 43.2849 79.7988 47.2177 82.0162 52.8874H81.9887Z" fill="#F8EFE2"/>
<path d="M76.293 22.7471C79.7288 22.7471 80.4478 19.3066 80.102 17.6472C79.973 17.1211 79.8921 16.5841 79.8605 16.0431C79.8369 15.9348 79.8428 15.8221 79.8775 15.7169C79.9123 15.6118 79.9748 15.518 80.0581 15.4457C80.607 15.0806 82.0285 15.2134 83.4336 16.3694C84.2898 17.0719 84.9704 18.0897 84.5862 18.8088C84.2626 19.297 83.8374 19.7085 83.3403 20.0146C82.7287 20.3862 82.2222 20.91 81.8694 21.5357C81.3699 22.6088 82.4786 26.1046 85.3546 27.1058C85.854 27.2717 85.4314 26.0438 85.9034 25.3523C86.4523 24.5448 87.8464 24.2461 87.2152 24.0636C86.8036 23.9529 85.5686 23.3334 85.4589 22.5812C85.3491 21.8289 86.4688 20.9217 87.2591 20.3133L87.5829 20.0533C88.5215 19.2955 88.6807 18.6373 88.6258 18.2225C88.5709 17.8076 88.3513 17.2932 87.4677 16.8452L87.2646 16.7566L86.4742 16.3971C85.2471 15.734 84.1617 14.8336 83.2799 13.7476C83.1098 13.5706 82.9561 13.3936 82.8079 13.2442C82.0944 12.492 81.3644 12.7575 80.6125 13.0285C80.0657 13.2531 79.4883 13.3929 78.9 13.4434L78.0219 13.5318C77.7513 13.5761 77.4994 13.6992 77.2974 13.8859C77.1329 14.0728 77.0124 14.2947 76.945 14.5351C76.8775 14.7755 76.8647 15.0282 76.9077 15.2742C77.0515 16.0955 77.2834 16.8985 77.5992 17.6693C78.214 19.4338 78.3182 22.3267 76.293 22.7471Z" fill="#F8EFE2"/>
<path d="M23.4677 20.053L23.7916 20.313C24.5819 20.938 25.7016 21.8728 25.5918 22.5808C25.482 23.2888 24.2471 23.9526 23.83 24.0632C23.1988 24.2347 24.5819 24.5444 25.1472 25.352C25.6247 26.0434 25.2076 27.2714 25.6961 27.1055C28.5721 26.1043 29.6862 22.6085 29.1868 21.5354C28.8309 20.912 28.325 20.3889 27.7159 20.0143C27.216 19.7098 26.7887 19.2981 26.4645 18.8084C26.0858 18.0894 26.7609 17.0716 27.6171 16.3691C29.0221 15.213 30.4327 15.0803 30.9925 15.4454C31.0734 15.5198 31.1343 15.6135 31.1698 15.7179C31.2053 15.8223 31.2142 15.934 31.1956 16.0428C31.1618 16.5839 31.0792 17.1208 30.9486 17.6468C30.6028 19.3062 31.3218 22.7468 34.7577 22.7468C32.7324 22.3319 32.8367 19.428 33.4624 17.6745C33.7792 16.9045 34.0093 16.1011 34.1484 15.2794C34.194 15.033 34.182 14.7792 34.1134 14.5383C34.0448 14.2973 33.9215 14.0757 33.7533 13.8911C33.5554 13.7014 33.3043 13.5778 33.0343 13.537L32.1616 13.4486C31.5715 13.3981 30.9924 13.2583 30.4437 13.0337C29.6753 12.7627 28.9508 12.4806 28.2483 13.2494L27.7817 13.7528C26.8971 14.8403 25.8078 15.7407 24.5764 16.4023L23.7971 16.7618L23.5775 16.8503C23.2834 16.9587 23.0228 17.1429 22.8215 17.3846C22.6202 17.6263 22.4853 17.917 22.4304 18.2277C22.381 18.637 22.5237 19.2952 23.4677 20.053Z" fill="#F8EFE2"/>
<path d="M54.0681 16.5406H50.9012C50.5719 19.3063 49.4962 21.0652 47.7344 22.1715C50.7805 22.0166 53.2174 19.4224 54.0681 16.5406Z" fill="#F8EFE2"/>
<path d="M60.1438 16.5406H56.9824C57.8331 19.4224 60.2756 22.0166 63.3107 22.1715C61.5599 21.0652 60.4841 19.3007 60.1438 16.5406Z" fill="#F8EFE2"/>
<path d="M55.4795 14.649H60.1997C60.7485 13.93 62.439 11.5626 62.439 9.22279C62.4378 8.73055 62.319 8.24583 62.0926 7.80967C61.8661 7.37351 61.5388 6.99877 61.1382 6.71711C60.1656 6.01706 59.0325 5.57738 57.8451 5.43933L55.5125 9.37769L53.1743 5.43933C51.9873 5.57879 50.8546 6.01834 49.8812 6.71711C49.483 7.00068 49.1577 7.37597 48.9324 7.8118C48.7071 8.24762 48.5883 8.73137 48.5859 9.22279C48.5859 11.5626 50.2709 13.93 50.8253 14.649H55.4795Z" fill="#F8EFE2"/>
<path d="M57.717 1.74469C57.49 1.36198 57.1684 1.04516 56.7836 0.825151C56.3988 0.605145 55.964 0.489502 55.5216 0.489502C55.0792 0.489502 54.6443 0.605145 54.2595 0.825151C53.8747 1.04516 53.5531 1.36198 53.3262 1.74469L55.5216 5.77707L57.717 1.74469Z" fill="#F8EFE2"/>
<path d="M69.7273 22.172H73.6132C74.0742 21.5801 75.4574 19.6386 75.4574 17.7137C75.4552 17.3087 75.3569 16.9101 75.1707 16.5512C74.9845 16.1923 74.7158 15.8835 74.3871 15.6505C73.5921 15.0787 72.6674 14.7173 71.6977 14.5996L69.7767 17.8409L67.8557 14.5996C66.8854 14.7216 65.9599 15.0825 65.1608 15.6505C64.8351 15.8856 64.5693 16.1952 64.3851 16.5538C64.201 16.9124 64.1038 17.3099 64.1016 17.7137C64.1016 19.6386 65.4901 21.5856 65.9402 22.172H69.7273Z" fill="#F8EFE2"/>
<path d="M71.3705 12.0938C71.2051 11.8166 70.9713 11.5873 70.6919 11.4281C70.4125 11.2688 70.097 11.1852 69.776 11.1852C69.4551 11.1852 69.1396 11.2688 68.8602 11.4281C68.5808 11.5873 68.3471 11.8166 68.1816 12.0938L69.7788 15.0309L71.3705 12.0938Z" fill="#F8EFE2"/>
<path d="M42.8826 12.094C42.7179 11.8167 42.4846 11.5872 42.2057 11.4279C41.9267 11.2685 41.6116 11.1848 41.2909 11.1848C40.9703 11.1848 40.6551 11.2685 40.3761 11.4279C40.0971 11.5872 39.8639 11.8167 39.6992 12.094L41.2909 15.0311L42.8826 12.094Z" fill="#F8EFE2"/>
<path d="M41.2482 22.1719H45.1286C45.5896 21.58 46.9782 19.6385 46.9782 17.7136C46.9729 17.3054 46.8704 16.9045 46.6794 16.5445C46.4884 16.1845 46.2144 15.876 45.8805 15.6449C45.0823 15.0744 44.1565 14.7115 43.1856 14.5884L41.2646 17.8353L39.3436 14.5884C38.3727 14.7115 37.447 15.0744 36.6488 15.6449C36.3206 15.8793 36.0528 16.1894 35.8676 16.5492C35.6823 16.909 35.5851 17.3083 35.584 17.7136C35.584 19.6385 36.9671 21.5856 37.4281 22.1719H41.2482Z" fill="#F8EFE2"/>
<path d="M93.557 81.8222C93.315 81.4191 92.9739 81.0858 92.5667 80.8545C92.1595 80.6232 91.7 80.5016 91.2326 80.5016C90.7652 80.5016 90.3057 80.6232 89.8985 80.8545C89.4913 81.0858 89.1502 81.4191 88.9082 81.8222L91.2299 86.1034L93.557 81.8222Z" fill="#F8EFE2"/>
<path d="M34.4025 46.4822L35.5002 44.0097V43.8659L35.363 43.8272L34.7483 44.0097L34.666 44.0872L33.9744 45.7798L33.3213 44.5794L33.1621 44.5186L32.5584 44.7233L32.4706 44.8007V44.9169L33.5683 46.6869C33.1841 47.5885 32.7998 48.4846 32.4102 49.3862V49.53L32.5144 49.5743H32.5584L33.1621 49.3696L33.2389 49.2977C33.4969 48.6671 33.7494 48.0421 34.0073 47.417C34.2598 47.8595 34.5068 48.3076 34.7538 48.7501L34.9075 48.8109L35.5167 48.6339L35.6045 48.5565V48.4348C35.1819 47.771 34.7922 47.1239 34.4025 46.4822Z" fill="#F8EFE2"/>
<path d="M38.832 43.6773L38.618 43.3897C38.495 43.289 38.3502 43.2189 38.1953 43.1851L38.124 43.1574C37.9409 43.1316 37.7547 43.1411 37.5751 43.1851H37.4489C37.271 43.2262 37.1006 43.2952 36.9439 43.3897L36.7519 43.5004L36.5762 43.6552L36.3622 43.8931L36.3018 43.976C36.1832 44.1431 36.0958 44.3306 36.0438 44.5292C35.9905 44.7086 35.9646 44.8951 35.967 45.0823V46.9077C35.9642 47.0949 35.9901 47.2815 36.0438 47.4608C36.0943 47.6336 36.189 47.79 36.3183 47.9144L36.3622 47.942C36.4959 48.0465 36.6518 48.1185 36.8177 48.1522H36.9439H37.0208C37.1863 48.1483 37.3506 48.1223 37.5093 48.0748C37.7211 48.0233 37.9231 47.9374 38.1075 47.8203C38.2865 47.7093 38.446 47.5691 38.5795 47.4055C38.7145 47.2415 38.8187 47.054 38.8869 46.8524C38.9593 46.6482 38.9964 46.433 38.9966 46.2162V44.3411C38.9988 44.1639 38.9691 43.9877 38.9088 43.8212L38.832 43.6773ZM38.1569 44.7117V46.443L38.102 46.7528L37.9484 47.0128L37.7233 47.2119L37.4599 47.3336H37.1306L36.9439 47.2451L36.8342 47.0404L36.7958 46.7196V44.9164L36.8287 44.6619L36.9439 44.3909L37.147 44.1586L37.5038 43.9871H37.7014H37.8221L38.0142 44.1143L38.1185 44.3024L38.1569 44.507V44.7117Z" fill="#F8EFE2"/>
<path d="M42.296 44.7451L42.0436 44.5349L42.2411 44.2804L42.4277 43.8822L42.4991 43.6775V43.6388L42.6199 43.1852L42.8668 42.2338V42.1122L42.7461 42.0679L42.1972 42.1675L42.0984 42.267L41.846 43.1852L41.7142 43.6554L41.5661 43.9928H41.5386L41.3904 44.1753L41.1983 44.2915L40.9897 44.3468L40.644 44.4243V42.6044L40.5946 42.4993H40.4848L39.9359 42.6266L39.8262 42.7538V47.3116L39.8756 47.4167L39.9579 47.4444H39.9854L40.5342 47.3171L40.6385 47.1844V45.2152L41.0776 45.1212H41.3136L41.4727 45.1544L41.6319 45.2927L41.7636 45.5858L42.1259 46.8857L42.2796 46.9797L42.8778 46.8746L42.9601 46.8083V46.7032L42.5595 45.3203C42.5063 45.1143 42.417 44.9196 42.296 44.7451Z" fill="#F8EFE2"/>
<path d="M46.337 44.7171C46.2813 44.5068 46.1923 44.307 46.0736 44.1252L45.8156 43.904L46.0022 43.6772C46.0938 43.5259 46.1675 43.3644 46.2218 43.1959L46.2766 43.0466L46.6224 41.7633V41.6582V41.531L46.5072 41.4923L45.9583 41.5587L45.843 41.6582L45.8156 41.7633L45.4643 43.0245L45.3875 43.1959L45.3271 43.3453L45.146 43.5444L44.9594 43.6495H44.9045L44.7508 43.6882L44.3941 43.7435V41.9127L44.3447 41.8076H44.2349L44.0044 41.8463L43.6586 41.9072L43.5488 42.0399V43.6993V46.6143L43.5927 46.7194L43.6805 46.7526L44.2623 46.6586L44.3721 46.5258V44.5622L44.8002 44.4958H44.9978H45.0307L45.2118 44.5456L45.3655 44.6894L45.4533 44.8609L45.5028 44.9936L45.8705 46.3156L46.0132 46.4042L46.2382 46.3765L46.6169 46.3267L46.7102 46.2659V46.1552L46.6334 45.8897L46.337 44.7171Z" fill="#F8EFE2"/>
<path d="M50.0238 41.1333C49.1675 41.1997 48.3058 41.2827 47.4606 41.3822L47.3398 41.5094V46.0783L47.3947 46.1779H47.4826C47.9326 46.1281 48.3937 46.0894 48.8547 46.0507C49.3157 46.012 49.6396 45.9677 50.0347 45.9345L50.1555 45.8018V45.2486L50.1116 45.1491L50.0128 45.1159L48.7724 45.2265L48.1686 45.2818V44.0151L48.5748 43.982L49.7493 43.8713L49.8701 43.7386V43.2518L49.8317 43.1578L49.7329 43.1246L49.2718 43.1688L48.4046 43.2463H48.1686V42.0183L50.0347 41.8524L50.1555 41.7141V41.2052L50.1116 41.1057L50.0238 41.1333Z" fill="#F8EFE2"/>
<path d="M53.9874 40.9174H53.4385L53.3233 40.9893L52.9226 41.7416C52.6756 42.2062 52.4286 42.6709 52.1761 43.1355V43.1631L51.9237 43.661L51.6932 44.0979V41.1332L51.6548 41.0391L51.5559 41.0004L51.0071 41.0336L50.8809 41.1719V45.7297L50.9193 45.8293L51.0126 45.868H51.0949L51.5724 45.8403L51.6822 45.7684L52.4561 44.3137C52.5713 44.098 52.6811 43.8822 52.7964 43.6721L52.8897 43.495L53.0543 43.1798L53.3343 42.6266V45.597L53.3726 45.6965L53.466 45.7352H54.0533L54.185 45.6025V41.0391L54.1411 40.9396L53.9874 40.9174Z" fill="#F8EFE2"/>
<path d="M51.6212 40.6686L51.9615 40.8844C52.0981 40.9368 52.2436 40.9613 52.3896 40.9563H52.461C52.632 40.9537 52.8005 40.9141 52.955 40.8401L53.2788 40.5967L53.4654 40.287L53.5368 39.9717L53.5038 39.8721L53.3995 39.8279H52.9385L52.8068 39.9606V40.0491L52.7354 40.1432L52.6201 40.2261L52.45 40.2593H52.3293L52.2195 40.1929L52.1481 40.0989V40.0104L52.0164 39.8887H51.5279L51.3633 40.027L51.4291 40.3478L51.6212 40.6686Z" fill="#F8EFE2"/>
<path d="M59.4912 41.3765C59.1786 41.1001 58.7764 40.9485 58.3605 40.9506L56.9829 40.9119L56.8896 40.9506L56.8457 41.0446V45.608L56.9774 45.7408H57.5263L57.6196 45.702L57.658 45.6025V43.9099H58.3496H58.7118L59.0466 43.8324L59.3595 43.6554L59.5186 43.5171L59.7437 43.1631L59.793 43.0525V42.9529C59.8282 42.8062 59.8466 42.6559 59.848 42.5049C59.8536 42.2385 59.8011 41.9742 59.6943 41.7305L59.4912 41.3765ZM59.0466 42.7372V42.7925L58.9533 42.9861L58.7447 43.1299L58.4538 43.1742H58.399H57.7293V41.6863H58.3825H58.4813C58.6499 41.6875 58.8113 41.755 58.9313 41.8744C59.0474 42.0341 59.1037 42.23 59.0905 42.4275L59.0466 42.7372Z" fill="#F8EFE2"/>
<path d="M63.1262 41.7531C62.9959 41.5938 62.8354 41.4622 62.6542 41.3659C62.4385 41.2555 62.2037 41.1879 61.9627 41.1668C61.7199 41.1403 61.4743 41.1687 61.2437 41.2497C61.0571 41.3112 60.8903 41.422 60.7607 41.5705L60.6125 41.7697L60.4862 42.0407C60.4301 42.2045 60.4004 42.3763 60.3984 42.5496V44.3749C60.4004 44.575 60.4281 44.7739 60.4807 44.9668C60.5346 45.1689 60.6299 45.3573 60.7607 45.5199C60.8909 45.6816 61.0536 45.8136 61.2382 45.9071C61.4571 46.0176 61.6962 46.0816 61.9407 46.0952H62.1273H62.2097L62.5609 46.051C62.742 46.0005 62.9103 45.9118 63.0549 45.791C63.1988 45.6705 63.3118 45.5168 63.3842 45.3429C63.4614 45.1495 63.5005 44.9429 63.4994 44.7345V42.793C63.4997 42.6046 63.4682 42.4175 63.4062 42.2398C63.3422 42.0621 63.2475 41.8973 63.1262 41.7531ZM62.6377 43.1857V44.6847L62.5829 44.9613L62.4402 45.1549L62.281 45.2378L62.2371 45.2655H61.9627L61.6224 45.1714L61.3974 44.9834L61.2711 44.7123L61.2272 44.3749V42.5717L61.2601 42.3339L61.3699 42.1182L61.584 41.9577L61.8254 41.908H61.9297L62.27 42.0186L62.4896 42.2343L62.6048 42.4832L62.6432 42.7045L62.6377 43.1857Z" fill="#F8EFE2"/>
<path d="M65.0393 43.6776V42.9641L65.0887 42.7097L65.2149 42.5216L65.4235 42.4054H65.7198C65.8857 42.427 66.0419 42.4961 66.1699 42.6046L66.3949 42.9807L66.5541 43.0803L67.103 42.9641L67.1908 42.8922V42.7871L67.059 42.4995C66.9656 42.3076 66.8305 42.1394 66.6639 42.0072L66.2687 41.7694C66.1066 41.6939 65.9348 41.6417 65.7583 41.6145C65.5442 41.5746 65.3247 41.5746 65.1106 41.6145L64.8033 41.7417L64.6112 41.8689C64.4767 41.9932 64.3717 42.1463 64.3038 42.317C64.2366 42.4936 64.2013 42.6809 64.1995 42.8701V44.7839C64.1915 45.1921 64.3388 45.5879 64.6112 45.8902L64.8142 46.0783L65.0942 46.2608C65.2894 46.363 65.5014 46.4286 65.7198 46.4544H66.0217C66.2358 46.4587 66.4481 46.4133 66.6419 46.3217C66.7725 46.2646 66.8892 46.1797 66.9839 46.0727C67.0787 45.9657 67.1493 45.8393 67.1908 45.7021V45.6579L67.1304 45.4975L66.5815 45.2209H66.4663L66.4334 45.2596L66.3949 45.3039L66.1809 45.5915C66.0491 45.6601 65.8975 45.6796 65.7528 45.6468L65.4454 45.5472L65.2204 45.3592L65.0832 45.1103L65.0338 44.8337V43.6776H65.0393Z" fill="#F8EFE2"/>
<path d="M68.5965 43.5284L68.6459 43.2794L68.7117 43.1854L68.7666 43.0969L68.9697 42.9973H69.2606C69.4078 43.0246 69.5458 43.0893 69.6613 43.1854L69.7161 43.2186C69.8278 43.3244 69.9061 43.4609 69.9411 43.6113L69.9906 43.6777H70.0948H70.2869L70.6272 43.6224L70.7205 43.5615V43.4509L70.5998 43.1854C70.5049 42.9755 70.3686 42.7873 70.1991 42.6323C69.9405 42.4144 69.6305 42.2677 69.299 42.2064C69.0875 42.1594 68.8684 42.1594 68.6568 42.2064C68.474 42.2382 68.3022 42.3162 68.1574 42.4331C68.0205 42.5485 67.9148 42.697 67.85 42.8646L67.7677 43.1854V43.4398V45.3537C67.7652 45.563 67.8006 45.7711 67.872 45.9677C67.9403 46.1581 68.0426 46.3343 68.1738 46.4876C68.3054 46.6471 68.4655 46.7803 68.6459 46.8804C68.8383 46.9909 69.048 47.0676 69.2661 47.1071L69.6613 47.1514C69.8494 47.1547 70.0362 47.1189 70.2101 47.0463C70.3433 46.9888 70.4618 46.9018 70.5568 46.7916C70.6519 46.6814 70.721 46.551 70.759 46.4102L70.6986 46.2498L70.1497 45.9456H70.0345L69.9576 46.034L69.7546 46.3051C69.6212 46.3628 69.4726 46.3744 69.3319 46.3383L69.0246 46.2221L68.805 46.0175L68.6623 45.763L68.6129 45.4809V43.5394L68.5965 43.5284Z" fill="#F8EFE2"/>
<path d="M73.9822 43.346L73.856 43.4013L73.6803 43.6945L73.4553 44.0541L72.7363 45.2156L72.2478 46.0398V43.0031L72.1491 42.8703L71.6002 42.7431H71.4849L71.4355 42.8482V47.4116L71.5398 47.5444L72.0887 47.6716L72.2369 47.6107L73.4114 45.6913L73.845 44.9778V48.009L73.9438 48.1417H74.0097L74.1195 48.1749L74.4213 48.2523L74.5091 48.28H74.542H74.6244L74.6793 48.1749V43.606L74.5805 43.4788L73.9822 43.346Z" fill="#F8EFE2"/>
<path d="M78.0928 44.5629L77.9391 44.6182C77.5659 45.199 77.2037 45.7798 76.8414 46.3661L76.3639 47.1515V44.1093L76.2596 43.9765L75.7108 43.8106H75.5901L75.5352 43.9157V48.4846L75.6285 48.6118L76.1773 48.7722L76.331 48.7169C76.7152 48.0919 77.1049 47.4779 77.4891 46.8694L77.9117 46.178V49.2258L78.005 49.353L78.5539 49.5411H78.5923H78.6746L78.7295 49.4304V44.8726L78.6417 44.7454L78.0928 44.5629Z" fill="#F8EFE2"/>
<path d="M67.9427 81.0863C67.7451 80.583 67.07 80.4226 66.2961 79.6648C65.9174 79.272 66.0162 78.918 65.8845 78.5585C65.4956 77.2816 64.9922 76.043 64.3806 74.858C64.2708 74.67 64.1501 74.4819 64.0183 74.3049C63.6561 73.7905 63.3707 73.6522 63.3323 73.1986C63.2335 72.1587 62.7066 71.5116 62.6407 71.1631C62.5749 70.8146 63.0194 70.3832 62.8658 70.0845C62.0234 68.4204 61.345 66.6771 60.8405 64.8795C60.6649 64.2544 59.6275 63.8175 59.6275 63.2643L59.5342 62.9767C59.3202 62.6172 58.7933 62.3848 58.7987 62.3295C58.9681 61.5403 58.9681 60.7237 58.7987 59.9344C58.5572 58.8614 57.2565 57.7993 55.2532 56.3723C55.3245 55.8191 55.5934 54.4197 55.4672 54.0546L55.2641 53.7117C55.2092 53.2782 55.0633 52.8615 54.836 52.4893C54.6275 52.2514 54.4793 52.362 54.117 52.3676C53.861 52.3804 53.6059 52.3271 53.3761 52.2127C52.9095 51.9029 52.3113 51.9306 51.6362 52.8654C51.5264 53.0203 51.3508 53.059 51.2794 53.236C51.1418 53.6071 51.0479 53.9933 50.9995 54.3865C50.9172 55.0558 50.9995 55.1775 50.9501 55.3766C50.1708 55.3434 49.1444 55.3766 48.8425 55.5979C46.7349 57.1522 45.511 59.9897 45.8348 60.2718C46.1586 60.5539 46.3398 62.3738 46.466 63.2367C46.466 63.2367 45.9556 63.3528 46.0599 63.6681L46.2684 64.2932L46.1861 64.7191C46.252 65.0913 46.3781 65.45 46.5593 65.7811C46.6691 65.9636 46.8447 65.9249 46.8721 66.0189C47.5802 68.5523 48.9194 68.5412 48.9194 68.5412V69.5369C48.4199 70.1896 47.6296 71.3622 47.6241 71.8158L47.6735 71.9651C47.8821 72.1753 48.0302 72.2583 48.0028 72.4187C47.9115 72.5774 47.7786 72.7075 47.6186 72.7948C47.5779 72.8464 47.5485 72.9061 47.5325 72.97C47.5164 73.0338 47.514 73.1004 47.5255 73.1652C47.5369 73.2301 47.5618 73.2918 47.5987 73.3462C47.6356 73.4005 47.6835 73.4464 47.7393 73.4807C48.0958 73.5833 48.4686 73.6153 48.8371 73.5748L48.4034 83.1164C48.4034 83.2436 48.3321 83.5091 48.0961 83.2989C47.7103 82.9086 47.3663 82.4784 47.0697 82.0156C47.0041 81.9028 46.9141 81.8064 46.8063 81.7335C46.6691 81.6727 46.6087 81.8276 46.5812 82.0046C46.5173 82.4707 46.549 82.9451 46.6746 83.3984L46.7734 83.5865C47.1542 84.076 47.6667 84.4446 48.2498 84.6485C48.8645 84.8698 48.8919 84.4771 48.9303 83.3542C48.9303 82.8011 49.1883 77.762 49.4243 73.4752L49.6603 73.3922C50.4735 72.8688 51.1494 72.1553 51.6307 71.3124C51.8557 71.9541 51.8447 73.3701 52.1356 73.7186C52.5363 74.1998 52.6845 74.0339 53.0358 74.9797C53.1181 75.2065 53.9414 75.4997 54.2927 76.086C55.072 77.4135 57.7669 78.99 58.6012 79.3384C58.8866 79.4546 59.2214 79.1559 59.3696 79.5597C59.5726 80.1128 59.6495 80.0797 59.9184 80.1792C60.1874 80.2788 60.1983 81.0698 60.6649 81.4127C61.1314 81.7556 61.6528 81.5786 62.0809 81.7667C62.509 81.9548 62.992 82.5743 63.0633 82.53C63.1347 82.4858 62.7889 81.9216 62.5913 81.4238C62.5282 81.2109 62.5282 80.984 62.5913 80.771C62.8273 79.4767 61.3399 78.7576 61.1369 78.1879C60.7911 77.2365 60.588 77.7675 60.3081 77.3195C59.4738 76.1081 58.8152 74.7751 57.8053 74.0007C57.5693 73.8237 57.3168 73.8403 57.2565 73.7573C57.1031 73.3566 56.9197 72.9683 56.7076 72.5957C56.6088 72.4464 56.8832 71.9043 56.6637 71.5779C56.5137 71.3567 56.4369 71.0935 56.4442 70.8257C56.4112 69.6309 56.5704 70.3721 56.8448 70.9363C57.1591 71.6849 57.5432 72.4016 57.9919 73.0769C58.1401 73.2263 58.4146 73.0216 58.5408 73.2152C59.0155 74.0243 59.6418 74.7326 60.3849 75.3006C60.5715 75.4444 60.6758 76.0252 61.2796 76.8936C62.52 78.6747 63.8153 79.5154 64.1665 80.4502C64.2429 80.668 64.3541 80.8717 64.4958 81.0531C64.7483 81.3463 64.9843 81.3408 65.2203 81.6893C65.5606 82.1871 65.9997 82.6628 66.3675 82.7015C66.7352 82.7402 66.8834 82.5798 67.1688 82.6241C67.4542 82.6683 68.3269 83.3376 68.3872 83.3044C68.4476 83.2712 67.8384 82.3254 67.8384 82.082C67.8933 81.7557 68.0689 81.385 67.9427 81.0863ZM49.4627 64.1825C49.3255 63.9945 49.3804 63.3583 49.3036 63.2422L49.0731 62.9214C49.1112 62.3037 49.1956 61.6898 49.3255 61.085C49.3804 62.1912 50.9721 66.1296 50.9721 66.1296C50.9721 66.1296 49.5944 64.3651 49.4627 64.1825Z" fill="#F8EFE2"/>
</svg>
