<svg width="0" height="0" xmlns="http://www.w3.org/2000/svg">
	<symbol id="fb" viewBox="0 0 21 21">
		<path d="M12.9325 13.4299V20.7914H17.807C19.4982 20.7914 20.8909 19.3987 20.8909 17.7075V3.0839C20.8909 1.39273 19.4982 0 17.807 0H3.08389C1.39273 0 0 1.39273 0 3.0839V17.807C0 19.4982 1.39273 20.8909 3.08389 20.8909H9.25169V13.5293H6.76467V9.84857H9.15221V7.36156C9.15221 5.37195 10.7439 3.68078 12.833 3.68078H16.5138V7.36156H12.833V9.84857H16.5138L15.9169 13.5293H12.9325V13.4299Z"/>
	</symbol>
	<symbol id="wa" viewBox="0 0 23 23" width="23" height="23">
		<path d="M11.3 0C5.3 0 0.399998 4.9 0.399998 10.9C0.399998 12.9 0.999998 14.8 1.9 16.5L0 22.2L6.2 20.6C7.7 21.4 9.4 21.9 11.3 21.9C17.3 21.9 22.2 17 22.2 11C22.2 5 17.3 0 11.3 0ZM17.4 14.4C17.2 15.2 16.9 16.3 16.7 16.8C16.4 16.8 16.1 16.7 15.8 16.7C10.7 15.9 6.6 11.9 5.5 6.8C5.4 6.3 5.3 5.8 5.3 5.4C5.9 5.2 7 4.9 7.7 4.6C8.2 4.4 8.7 4.3 8.7 4.3L10.5 7.3L8.9 9C9.8 10.8 11.3 12.3 13.1 13.3L14.8 11.6L17.8 13.3C17.8 13.3 17.6 13.8 17.4 14.4Z"/>
	</symbol>
	<symbol id="tg" viewBox="0 0 24 21">
		<path d="M21.4909 0.148473L1.09088 8.14847C-0.309117 8.74847 -0.309117 9.54847 0.790883 9.94847L6.19088 11.6485L18.5909 3.64847C18.9909 3.34847 19.4909 3.74847 19.2909 3.94847L9.29088 13.1485V20.2485C9.69088 20.2485 10.0909 20.0485 10.3909 19.7485L13.7909 16.4485L18.0909 19.7485C19.0909 20.3485 19.7909 20.0485 20.0909 18.7485L23.6909 1.44847C23.9909 0.148473 22.4909 -0.251527 21.4909 0.148473Z"/>
	</symbol>
	<symbol id="vk" viewBox="0 0 26 16">
		<path d="M25.5665 14.2257C25.3675 13.8278 25.1686 13.5293 24.9696 13.1314C24.2732 12.1366 23.3779 11.1418 22.5821 10.2465C22.1841 9.84857 21.8857 9.55013 21.4878 9.15221C21.3883 9.05272 21.2888 8.85376 21.1893 8.6548C21.0899 8.45584 21.0899 8.1574 21.1893 7.95844C21.2888 7.85896 21.3883 7.66 21.4878 7.56052C22.3831 6.26727 23.2784 4.87454 24.1738 3.48182C24.5717 2.88493 24.8701 2.28805 25.0691 1.59169C25.1686 1.39273 25.268 1.09429 25.268 0.895325C25.3675 0.596883 25.1686 0.298442 24.8701 0.198961C24.6712 0.198961 24.5717 0.0994809 24.3727 0.0994809C23.4774 0.0994809 22.5821 0.0994809 21.6867 0.0994809C21.5873 0.0994809 21.4878 0.0994809 21.2888 0.0994809C20.8909 0.0994809 20.5925 0.397922 20.3935 0.696364C20.3935 0.795844 20.294 0.795844 20.294 0.895325C19.8961 1.69117 19.4982 2.48701 19.1003 3.28286C18.6028 4.27766 18.006 5.17299 17.3096 6.06831C17.0112 6.46623 16.6132 6.86415 16.1158 7.26208C16.0164 7.36156 15.8174 7.46104 15.6184 7.46104C15.519 7.46104 15.32 7.46104 15.2205 7.26208C15.121 7.1626 15.121 7.06312 15.121 6.96363C15.121 6.86415 15.121 6.66519 15.121 6.56571C15.121 5.67039 15.121 4.67558 15.121 3.78026C15.121 3.0839 15.121 2.48701 15.121 1.79065C15.121 1.49221 15.121 1.19377 15.121 0.895325C15.121 0.696364 15.121 0.596883 15.0216 0.397922C14.9221 0.198961 14.8226 0.0994805 14.6236 0C14.5241 0 14.4247 0 14.2257 0C12.833 0 11.4403 0 9.94805 0C9.84857 0 9.84857 0 9.74908 0C9.35116 0 9.1522 0.298442 9.1522 0.696364C9.1522 0.795844 9.1522 0.895324 9.25168 0.994805C9.35116 1.09429 9.45065 1.29325 9.55013 1.39273C9.84857 1.79065 10.0475 2.18857 10.147 2.58649C10.0475 3.18338 10.147 3.48182 10.147 3.78026V7.75948C10.147 7.85896 10.147 8.05792 10.147 8.1574C10.147 8.35636 10.147 8.45584 10.0475 8.6548C10.0475 8.85376 9.84857 8.95325 9.6496 8.95325C9.55013 8.95325 9.45065 8.95325 9.35117 8.85376C9.25169 8.75428 9.05272 8.6548 8.95325 8.55532C8.6548 8.25688 8.35636 7.85896 8.05792 7.56052C7.36156 6.56571 6.76467 5.57091 6.26727 4.5761C5.76986 3.5813 5.37195 2.58649 4.97402 1.49221C4.87454 1.29325 4.77506 1.09429 4.67558 0.895325C4.5761 0.596883 4.27766 0.397922 3.97922 0.397922C3.87974 0.397922 3.87973 0.397922 3.78025 0.397922C2.78545 0.397922 1.79065 0.397922 0.895326 0.397922C0.696365 0.397922 0.596883 0.397922 0.497402 0.497402C0.198961 0.596883 0.0994805 0.795844 0 1.09429C0 1.19377 0 1.39273 0 1.49221C0 1.69117 0.099479 1.98961 0.099479 2.28805C0.39792 3.28286 0.795839 4.27766 1.29324 5.27247C1.98961 6.66519 2.68597 7.95844 3.5813 9.25169C4.0787 10.0475 4.67558 10.8434 5.27246 11.5397C6.46623 12.9325 7.85896 14.0268 9.55013 14.8226C10.8434 15.4195 12.3356 15.7179 13.8278 15.6184C14.1262 15.6184 14.3252 15.519 14.6236 15.4195C14.8226 15.32 15.0216 15.121 15.0216 14.9221C15.0216 14.8226 15.0216 14.6236 15.0216 14.5242C15.0216 13.7283 15.0216 12.9325 15.0216 12.0371C15.0216 11.8382 15.0216 11.7387 15.0216 11.5397C15.0216 11.2413 15.2205 11.0423 15.519 11.0423C15.8174 11.0423 16.0164 11.0423 16.2153 11.1418C16.4143 11.2413 16.6132 11.3408 16.8122 11.4403C17.4091 11.8382 18.006 12.3356 18.6028 12.9325C19.1003 13.4299 19.5977 13.9273 19.9956 14.4247C20.1945 14.6236 20.493 14.9221 20.6919 15.121C20.9904 15.4195 21.3883 15.519 21.7862 15.519C22.1842 15.519 22.6816 15.519 23.0795 15.519C23.5769 15.519 23.9748 15.519 24.4722 15.519C24.6712 15.519 24.8701 15.519 24.9696 15.4195C25.3675 15.32 25.5665 15.0216 25.467 14.6236C25.666 14.5242 25.5665 14.4247 25.5665 14.2257Z"/>
	</symbol>
	<symbol id="tw" viewBox="0 0 22 18">
		<path d="M10.346 4.61529V5.41113L9.55013 5.31165C6.76468 4.91373 4.17819 3.71996 2.18858 1.73035L1.19378 0.735546L0.895334 1.53139C0.298451 3.12308 0.696373 4.91373 1.89014 6.10749C2.48702 6.80386 2.38754 6.90334 1.29325 6.50541C1.09429 6.40593 0.79585 6.30645 0.596889 6.30645C0.596889 7.00282 0.795856 7.69918 1.19378 8.39555C1.69118 9.29087 2.38754 9.98723 3.28286 10.3852L4.07871 10.7831H3.18339C2.28806 10.7831 2.28806 10.7831 2.38754 11.0815C2.98442 12.2753 3.97922 13.2701 5.27247 13.668L6.26727 13.9665L5.47143 14.4639C4.17818 15.1602 2.78546 15.5581 1.29325 15.6576C0.895328 15.6576 0.397922 15.6576 0 15.7571C0.895325 16.354 1.89013 16.8514 2.98442 17.1498C6.36675 18.1446 10.0475 17.7467 13.1314 15.9561C15.4195 14.4639 17.2101 12.3748 18.3044 9.88775C18.9013 8.39555 19.1997 6.80386 19.3987 5.21217C19.3987 4.51581 19.3987 4.41633 20.294 3.521C20.692 3.12308 21.0899 2.72516 21.3883 2.32723C21.5873 2.02879 21.4878 2.02879 20.6919 2.32723C19.3987 2.82464 19.1997 2.72516 19.7966 2.02879C20.294 1.53139 20.5925 1.03399 20.8909 0.337625C20.8909 0.337625 20.6919 0.337625 20.3935 0.536586C19.9956 0.735547 19.4982 0.934508 19.0008 1.03399L18.2049 1.33243L17.4091 0.835027C17.0112 0.536585 16.5138 0.337625 16.1159 0.138664C15.2205 -0.0602974 14.3252 -0.0602975 13.4299 0.238144C11.4403 0.835027 10.2465 2.62568 10.346 4.61529Z"/>
	</symbol>
	<symbol id="ok" viewBox="0 0 14 24">
		<path d="M6.63472 12.1366C10.0171 12.1366 12.703 9.35117 12.703 6.06831C12.703 2.68597 10.0171 0 6.63472 0C3.25239 0 0.566406 2.78545 0.566406 6.06831C0.566406 9.35117 3.25239 12.1366 6.63472 12.1366ZM6.63472 3.48182C8.02745 3.48182 9.12174 4.5761 9.12174 5.96883C9.12174 7.36156 8.02745 8.45584 6.63472 8.45584C5.242 8.45584 4.14771 7.36156 4.14771 5.96883C4.14771 4.67558 5.242 3.48182 6.63472 3.48182Z"/>
		<path d="M9.12024 17.708C10.314 17.4096 11.5078 16.9122 12.6021 16.2158C13.3979 15.7184 13.6963 14.6241 13.1989 13.7288C12.7015 12.9329 11.6072 12.6345 10.8114 13.1319C8.32439 14.7236 5.14102 14.7236 2.65401 13.1319C1.85816 12.6345 0.763866 12.8335 0.266464 13.6293C-0.230939 14.4251 -0.0319716 15.5194 0.863353 16.1163C1.95764 16.8127 3.1514 17.3101 4.34517 17.6085L0.962839 20.9909C0.266476 21.6872 0.266476 22.7815 0.962839 23.4779C1.26128 23.7763 1.75867 23.9753 2.25607 23.9753C2.75348 23.9753 3.1514 23.7763 3.54932 23.4779L6.83218 20.0955L10.115 23.4779C10.8114 24.1742 11.9057 24.1742 12.6021 23.4779C13.2984 22.7815 13.2984 21.6872 12.6021 20.9909L9.12024 17.708Z"/>
	</symbol>
	<symbol id="copy" viewBox="0 0 24 24">
		<path d="M6.18725 8.7185C6.62625 8.2795 7.11325 7.9175 7.63125 7.6315C10.5182 6.0405 14.2203 6.8865 16.0763 9.7005L13.8303 11.9455C13.1863 10.4765 11.5872 9.6405 9.99625 9.9965C9.39725 10.1305 8.82825 10.4295 8.36325 10.8945L4.05925 15.2005C2.75225 16.5075 2.75225 18.6335 4.05925 19.9405C5.36625 21.2475 7.49225 21.2475 8.79925 19.9405L10.1263 18.6135C11.3333 19.0925 12.6273 19.2835 13.9053 19.1885L10.9763 22.1175C8.46525 24.6285 4.39425 24.6285 1.88325 22.1175C-0.62775 19.6065 -0.62775 15.5355 1.88325 13.0245L6.18725 8.7185ZM13.0233 1.8825L10.0943 4.8115C11.3713 4.7155 12.6663 4.9075 13.8733 5.3855L15.1993 4.0595C16.5063 2.7525 18.6323 2.7525 19.9393 4.0595C21.2463 5.3665 21.2463 7.4925 19.9393 8.7995L15.6343 13.1045C14.3233 14.4155 12.1943 14.4045 10.8943 13.1045C10.5913 12.8015 10.3303 12.4245 10.1673 12.0535L7.92125 14.2985C8.15725 14.6565 8.40225 14.9655 8.71725 15.2805C9.52925 16.0925 10.5632 16.6975 11.7533 16.9845C13.2952 17.3555 14.9473 17.1505 16.3663 16.3675C16.8843 16.0815 17.3713 15.7195 17.8103 15.2805L22.1143 10.9755C24.6263 8.4645 24.6262 4.3935 22.1152 1.8825C19.6042 -0.6275 15.5343 -0.6275 13.0233 1.8825Z"/>
	</symbol>
</svg>