<svg width="143" height="105" viewBox="0 0 143 105" fill="none" xmlns="http://www.w3.org/2000/svg">
<path d="M85.3135 55.2213H55.2363V86.7168C55.2374 87.2823 55.2686 87.8473 55.3296 88.4094C55.4088 89.2769 55.6179 90.1273 55.9498 90.9317C56.7347 92.7294 58.1453 93.6034 59.9784 93.9684C60.8836 94.1349 61.8027 94.2127 62.7227 94.2008H65.5713C66.1908 94.1977 66.809 94.2607 67.4154 94.3888L67.58 94.4331C68.0381 94.5373 68.4809 94.701 68.8973 94.9198L69.1113 95.0249C69.9946 95.5286 70.6947 96.3039 71.1092 97.2374L71.2958 97.6744L71.4879 97.2374C72.3935 95.2019 74.2322 94.1731 77.0258 94.1731H79.8743C83.9249 94.1731 86.746 93.1277 87.2729 88.3818C87.3339 87.8197 87.3651 87.2547 87.3662 86.6892V55.2213H85.308H85.3135ZM86.1862 66.992V86.6505C86.1878 87.2384 86.153 87.8259 86.0819 88.4094C85.5879 92.2814 83.3377 93.1111 79.7097 93.1111H76.8941C74.6219 93.1111 72.8655 93.7582 71.6635 95.0415L71.2354 95.4951L70.8073 95.0415C69.6053 93.7582 67.849 93.1111 65.5767 93.1111H62.7556C59.1497 93.1111 56.8829 92.2869 56.3889 88.4094C56.3178 87.8259 56.283 87.2384 56.2846 86.6505V56.3774H86.1862V66.992Z" fill="#F8EFE2"/>
<path d="M71.1802 64.2985C71.1473 64.1823 71.021 64.1326 71.0046 64.0053C70.9584 63.6282 70.831 63.2657 70.6314 62.9433C70.4557 62.7387 70.324 62.8327 70.0112 62.8382C69.7872 62.8472 69.5646 62.7997 69.3635 62.6999C68.9629 62.4344 68.4414 62.4621 67.8542 63.2531C67.7609 63.3858 67.6072 63.4246 67.5468 63.5739C67.4278 63.8951 67.3467 64.2292 67.3053 64.5695C67.234 65.1503 67.3053 65.261 67.2614 65.4324C66.644 65.3637 66.0192 65.4278 65.4282 65.6205C63.606 66.9757 62.5358 69.4371 62.8212 69.6805C62.9369 69.8302 63.0125 70.0073 63.0407 70.1949C63.1944 70.7868 63.2877 71.7216 63.37 72.2526C63.37 72.2526 62.9255 72.3522 63.0133 72.6287C63.0849 72.8097 63.1472 72.9943 63.1999 73.1819C63.1848 73.3074 63.1591 73.4314 63.123 73.5524C63.1784 73.8749 63.2879 74.1854 63.4469 74.4706C63.5456 74.6366 63.6939 74.5979 63.7158 74.6808C64.336 76.8934 65.4941 76.8934 65.4941 76.8934L65.5215 77.7563C65.0276 78.4034 64.2043 79.6369 64.4238 79.8637C64.6434 80.0905 64.7367 80.1237 64.7147 80.262C64.6347 80.3995 64.519 80.5123 64.3799 80.5883C64.3446 80.633 64.3193 80.6848 64.3056 80.7402C64.2919 80.7957 64.2902 80.8534 64.3007 80.9095C64.3111 80.9656 64.3333 81.0189 64.3659 81.0656C64.3986 81.1123 64.4408 81.1514 64.4897 81.1802C64.789 81.2668 65.102 81.295 65.4118 81.2632L65.2197 85.561L65.088 88.4263L65.0385 89.5325C65.0385 89.6432 64.9727 89.8755 64.7696 89.6874C64.437 89.3498 64.1391 88.9791 63.8805 88.5811C63.8412 88.5207 63.7952 88.465 63.7433 88.4152C63.617 88.288 63.5347 88.3156 63.4963 88.4152C63.4796 88.4658 63.4668 88.5176 63.4578 88.5701C63.4029 88.9732 63.429 89.3832 63.5347 89.7759C63.843 90.2986 64.3283 90.6915 64.9013 90.8822C65.4502 91.0813 65.4502 90.7384 65.4941 89.7759C65.4941 89.6432 65.5215 89.1453 65.5545 88.4484C65.5874 87.7514 65.6368 86.7115 65.6972 85.5831C65.763 84.2003 65.8454 82.6515 65.9222 81.1968C65.9932 81.1796 66.0629 81.1574 66.1308 81.1304C66.8369 80.6743 67.4242 80.054 67.8432 79.3216C68.0353 79.8748 68.0243 81.1028 68.2768 81.4125C68.6226 81.8274 68.7543 81.6835 69.0617 82.5188C69.133 82.7179 69.8465 82.9723 70.1594 83.4978C70.8138 84.3591 71.6379 85.0747 72.5798 85.5997C73.0039 85.8713 73.4458 86.1134 73.9025 86.3243C74.1495 86.4239 74.4514 86.1639 74.5667 86.5124C74.7478 87.0158 74.8082 86.966 75.0552 87.0655C75.3021 87.1651 75.3021 87.8344 75.7028 88.1331C76.1034 88.4318 76.559 88.2824 76.9322 88.4428L76.9871 88.476C77.3383 88.6641 77.7226 89.1453 77.7884 89.1066C77.8543 89.0679 77.6787 88.7913 77.525 88.476C77.4701 88.3709 77.4207 88.2603 77.3768 88.1552C77.324 87.9747 77.324 87.7826 77.3768 87.6021C77.5415 86.6673 76.6907 86.081 76.2791 85.6219C76.2036 85.5449 76.1422 85.455 76.0979 85.3563C75.8016 84.5322 75.6479 84.9913 75.379 84.6041C74.66 83.5476 74.0837 82.3915 73.1836 81.7057C72.9805 81.5508 72.7554 81.5674 72.6951 81.4955C72.5615 81.1472 72.3999 80.8105 72.2121 80.4888C72.1297 80.3615 72.3657 79.8914 72.1736 79.6037C72.0431 79.4119 71.9759 79.1836 71.9816 78.9511C71.9816 77.9112 72.0913 78.5583 72.3273 79.0506C72.6028 79.698 72.9372 80.3183 73.3262 80.9036C73.458 81.0308 73.6885 80.8594 73.7873 81.0253C74.1978 81.7289 74.7425 82.3436 75.39 82.834C75.5491 82.9613 75.6369 83.4646 76.1638 84.2169C76.5143 84.7138 76.9015 85.1834 77.3219 85.6219C77.863 86.1036 78.3195 86.674 78.6721 87.3089C78.9959 88.1607 79.2923 87.945 79.5886 88.3765C79.613 88.4156 79.6405 88.4526 79.671 88.4871C79.9509 88.8798 80.2912 89.2283 80.5821 89.2615C80.873 89.2947 81.0267 89.1564 81.2737 89.1951C81.5206 89.2338 82.2835 89.8146 82.3384 89.7814C82.3933 89.7482 81.839 88.9351 81.8664 88.7249C81.8755 88.6443 81.8921 88.5647 81.9158 88.4871C81.9898 88.2811 81.9993 88.0571 81.9432 87.8454C81.7731 87.4085 81.1858 87.2647 80.5272 86.6064C80.1979 86.269 80.2857 85.9648 80.1705 85.6551C80.1728 85.6441 80.1728 85.6328 80.1705 85.6219C79.7698 84.5709 79.4624 83.2378 78.5623 81.949C78.2494 81.501 78.0134 81.3959 77.964 80.9977C77.8505 80.3841 77.651 79.79 77.3713 79.2332C77.3219 78.9566 77.6951 78.5528 77.5634 78.2928C76.83 76.8492 76.2417 75.3353 75.8071 73.7737C75.6479 73.2206 74.7478 72.8555 74.7478 72.3743C74.7478 71.893 74.0178 71.622 74.0233 71.5612C74.1087 71.1427 74.1492 70.7161 74.144 70.2889C74.1397 70.0191 74.1084 69.7504 74.0507 69.4869C73.8422 68.5466 72.7115 67.6284 70.9717 66.3893C71.1238 65.7033 71.1939 65.0014 71.1802 64.2985ZM65.763 73.2814C65.6752 73.1376 65.7082 72.673 65.6642 72.59C65.6203 72.507 65.5215 72.4683 65.5215 72.3577C65.5444 71.905 65.5957 71.4542 65.6752 71.008C65.7081 71.8267 66.7016 74.703 66.7016 74.703C66.7016 74.703 65.8454 73.4142 65.763 73.2814Z" fill="#F8EFE2"/>
<path d="M68.6618 14.8756C69.0186 12.027 68.6618 5.92036 68.6618 5.92036V5.63275H32.2344V25.3244H45.4453V16.2253H55.4509C53.8812 33.9256 41.4716 48.5671 39.353 66.992H52.3334V52.3008H56.4059C60.2699 40.2424 66.5707 31.5803 68.6618 14.8756Z" fill="#F8EFE2"/>
<path d="M94.5089 37.9137V54.7456C94.5089 55.2033 94.3285 55.6423 94.0073 55.9659C93.6862 56.2896 93.2506 56.4714 92.7965 56.4714H90.2882V66.981H95.881C99.0214 66.9795 102.033 65.7213 104.253 63.4829C106.473 61.2445 107.72 58.2091 107.72 55.0443V37.6648C107.718 34.4593 106.455 31.3855 104.206 29.1184C101.957 26.8513 98.908 25.5762 95.7273 25.5733H85.2277V16.2253H107.764V5.63275H72.0059V36.1879H92.7855C93.0113 36.1865 93.2351 36.23 93.4441 36.3161C93.6532 36.4022 93.8433 36.5291 94.0034 36.6895C94.1636 36.8499 94.2908 37.0406 94.3775 37.2507C94.4642 37.4608 94.5089 37.6861 94.5089 37.9137Z" fill="#F8EFE2"/>
<path d="M30.6318 66.1285L34.3256 62.3395C34.5663 62.0938 34.7294 61.7818 34.7943 61.4427C34.8592 61.1037 34.8231 60.7529 34.6904 60.4346C34.5577 60.1163 34.3344 59.8447 34.0488 59.6541C33.7631 59.4635 33.4278 59.3624 33.0852 59.3637H10.3242L14.8523 67.1076L10.3242 74.7242H26.241V83.4085C26.241 83.9806 26.4665 84.5293 26.8679 84.9339C27.2694 85.3384 27.8138 85.5657 28.3815 85.5657H52.361V70.2107H32.3278C31.8589 70.2099 31.4007 70.0696 31.0106 69.8075C30.6204 69.5454 30.3157 69.1731 30.1347 68.7372C29.9536 68.3013 29.9041 67.8213 29.9926 67.3573C30.081 66.8932 30.3034 66.4658 30.6318 66.1285ZM30.9502 82.3354H29.4079V74.5307H28.7218V73.7673L29.4079 73.1533H30.9502V82.3354ZM45.1325 74.0384L46.1589 73.1367H49.7045L50.5278 74.0218V75.5208H48.9855V74.4975H46.6748V76.71H49.5014L50.5278 77.6116V81.561L49.5014 82.3354H46.1589L45.1106 81.4172L45.1325 74.0384ZM38.711 73.1367H40.2423V77.8163H42.1688V73.1367H43.711V77.8163H44.2599V79.1936H43.711V82.3188H42.1688V79.1936H39.7483L38.711 78.292V73.1367ZM36.5156 73.1367L37.5419 74.0549V81.4172L36.5156 82.3188H32.9699L32.1467 81.4338V79.9348H33.6889V80.9581H35.9996V78.6792H33.173L32.1467 77.7776V73.9056L33.173 73.1423L36.5156 73.1367Z" fill="#F8EFE2"/>
<path d="M102.48 74.5306H100.164V80.9636H102.48V74.5306Z" fill="#F8EFE2"/>
<path d="M127.757 67.1028L132.285 59.3589H109.524C109.181 59.3577 108.846 59.4588 108.56 59.6494C108.274 59.84 108.051 60.1116 107.919 60.4299C107.786 60.7482 107.75 61.099 107.815 61.438C107.88 61.7771 108.043 62.0891 108.283 62.3348L111.977 66.1238C112.306 66.4614 112.528 66.8893 112.617 67.3539C112.705 67.8184 112.655 68.2989 112.473 68.735C112.291 69.1711 111.986 69.5434 111.595 69.8051C111.204 70.0667 110.745 70.2062 110.276 70.2059H90.2754V85.5388H114.266C114.834 85.5388 115.378 85.3115 115.779 84.907C116.181 84.5024 116.406 83.9537 116.406 83.3816V74.725H132.296L127.757 67.1028ZM97.5367 77.7784L96.5104 78.68H93.6783V80.9589H95.9944V80.1568H97.5367V82.3362H92.136V78.2209L93.1679 77.3026H95.9944V74.537H93.6783V75.8921H92.136V74.0613L93.1679 73.1597H96.5104L97.5367 74.0779V77.7784ZM104.013 81.4346L102.987 82.3362H99.6443L98.618 81.4346V74.0723L99.6443 73.1541H102.987L104.013 74.0723V81.4346ZM110.495 77.7784L109.469 78.68H106.642V80.9589H108.958V80.1568H110.495V82.3362H105.1V78.2209L106.126 77.3026H108.958V74.537H106.642V75.8921H105.1V74.0613L106.126 73.1597H109.469L110.495 74.0779V77.7784ZM113.788 82.3362H112.251V74.5315H111.522V73.7681L112.208 73.1541H113.744L113.788 82.3362Z" fill="#F8EFE2"/>
<path d="M48.9845 78.0934H46.6738V80.9587H48.9845V78.0934Z" fill="#F8EFE2"/>
<path d="M85.2227 45.5408V45.2587H84.9373H72.2916H72.0117V45.5408V52.3001H85.2227V45.5408Z" fill="#F8EFE2"/>
<path d="M134.157 67.0747L141.912 53.8271H113.207V37.6645C113.213 34.3403 112.285 31.0824 110.53 28.2679C108.775 25.4535 106.264 23.1977 103.289 21.7619H113.268V0.0900269H26.7352V30.8609H46.0439C44.9462 33.6598 43.7222 36.4808 42.4654 39.3626C40.1807 44.3472 38.1653 49.4527 36.428 54.6568C35.3898 54.1095 34.2351 53.8248 33.0635 53.8271H0.681094L8.43641 67.0747L0.615234 80.2559H20.7143V83.3977C20.7172 85.4389 21.5231 87.3956 22.9552 88.839C24.3874 90.2823 26.3289 91.0944 28.3543 91.0973H50.1713C51.269 95.4948 54.4194 99.8092 62.729 99.8092H65.5776C65.7741 99.8059 65.9705 99.8189 66.1649 99.848L66.9497 101.646C67.3215 102.496 67.9306 103.219 68.7029 103.727C69.4752 104.234 70.3774 104.505 71.2994 104.505C72.2215 104.505 73.1236 104.234 73.8959 103.727C74.6682 103.219 75.2774 102.496 75.6491 101.646L76.4394 99.8424C76.6375 99.8134 76.8376 99.8005 77.0377 99.8037H79.8807C88.1904 99.8037 91.3628 95.4893 92.4385 91.0918H114.266C116.291 91.0889 118.232 90.2766 119.664 88.8331C121.095 87.3896 121.9 85.4328 121.901 83.3922V80.2559H142.006L134.157 67.0747ZM119.239 77.5843V83.4033C119.238 84.7348 118.712 86.0115 117.778 86.953C116.844 87.8946 115.577 88.4243 114.255 88.4257H90.1937C89.3814 97.1321 82.3012 97.1376 79.8807 97.1376H77.0377C74.738 97.1376 74.3318 98.0447 74.1397 98.4817L73.2231 100.578C73.0619 100.956 72.7936 101.277 72.4518 101.501C72.11 101.726 71.71 101.843 71.3021 101.839C70.8935 101.844 70.4928 101.725 70.1508 101.5C69.8088 101.274 69.5409 100.952 69.3812 100.573L68.4536 98.4541C68.2835 98.0669 67.8718 97.1376 65.5776 97.1376H62.729C60.3031 97.1376 53.2284 97.1376 52.4161 88.4257H28.3543C27.033 88.4243 25.7663 87.8946 24.832 86.953C23.8977 86.0115 23.3722 84.7348 23.3707 83.4033V77.5677H5.30244L11.5429 67.0858L5.34635 56.4987H33.0855C33.9873 56.4972 34.8694 56.7648 35.6205 57.2678C36.3717 57.7709 36.9582 58.4867 37.3062 59.3253C37.4543 59.68 37.5593 60.0514 37.619 60.4315C39.2655 53.3459 42.1196 46.8023 44.8968 40.4246C48.0417 33.2339 51.0275 26.3695 52.224 19.0847H48.2887V28.1838H29.3917V2.73953H110.595V19.0626H88.0587V22.7298H95.7426C99.6729 22.7298 103.442 24.3033 106.221 27.1041C109 29.9049 110.562 33.7036 110.562 37.6645V55.0606C110.562 55.5474 110.54 56.0286 110.496 56.5043H137.274L131.078 67.0913L137.318 77.5677L119.239 77.5843Z" fill="#F8EFE2"/>
<path d="M36.0157 74.5306H33.7051V77.3074H36.0157V74.5306Z" fill="#F8EFE2"/>
</svg>
